<svg xmlns="http://www.w3.org/2000/svg" viewBox="0 0 500 500"><g id="freepik--Character--inject-659"><g id="freepik--group--inject-659"><path d="M135,156.49c5.83,0,20.62,13.44,20.62,13.44l-6.25,14.47L133.7,179Z" style="fill:#407BFF"></path><path d="M145.46,183.07l-9.74-3.35.43-7.43A22.56,22.56,0,0,1,145.46,183.07Z" style="opacity:0.2;isolation:isolate"></path><polygon points="171.23 407.45 162.96 408.32 159.54 390.44 167.82 389.57 171.23 407.45" style="fill:#e4897b"></polygon><polygon points="126.56 409.04 118.46 408.73 116.59 390.04 124.7 390.35 126.56 409.04" style="fill:#e4897b"></polygon><path d="M172,407.6h-9.85a.71.71,0,0,0-.69.56l-1.6,7.22a1.18,1.18,0,0,0,.92,1.41l.26,0c3.19-.05,5.51-.25,9.51-.25,2.47,0,9.91.26,13.31.26s3.85-3.36,2.45-3.67c-6.25-1.36-10.95-3.25-12.95-5.05A2,2,0,0,0,172,407.6Z" style="fill:#263238"></path><path d="M172.53,408.72a.19.19,0,0,1-.15-.16.2.2,0,0,1,.09-.19c.29-.18,2.91-1.79,3.81-1.33a.57.57,0,0,1,.33.54,1.15,1.15,0,0,1-.4,1,2.41,2.41,0,0,1-1.56.41A9.43,9.43,0,0,1,172.53,408.72Zm.55-.27a4,4,0,0,0,2.89-.14.81.81,0,0,0,.26-.69c0-.16-.07-.23-.13-.23a.4.4,0,0,0-.24-.05A8,8,0,0,0,173.08,408.45Z" style="fill:#407BFF"></path><path d="M172.47,408.76a.19.19,0,0,1-.09-.17c0-.11.21-2.45,1.15-3.21a1,1,0,0,1,.81-.25.63.63,0,0,1,.62.51c.16.86-1.45,2.64-2.29,3.09h-.09A.2.2,0,0,1,172.47,408.76Zm1.3-3.15a4.59,4.59,0,0,0-1,2.54c.84-.63,1.87-2,1.77-2.51,0-.05,0-.2-.28-.2h-.09A.66.66,0,0,0,173.77,405.61Z" style="fill:#407BFF"></path><path d="M127.74,407.34h-9.85a.71.71,0,0,0-.69.56l-1.6,7.22a1.2,1.2,0,0,0,.92,1.42l.27,0c3.18-.05,5.51-.25,9.51-.25,2.46,0,9.9.26,13.3.26s3.85-3.36,2.46-3.67c-6.25-1.36-11-3.25-13-5A2,2,0,0,0,127.74,407.34Z" style="fill:#263238"></path><path d="M128.3,408.47a.22.22,0,0,1-.15-.17.19.19,0,0,1,.1-.19c.29-.18,2.91-1.79,3.8-1.33a.57.57,0,0,1,.33.54,1.13,1.13,0,0,1-.4,1,2.41,2.41,0,0,1-1.56.41A10.11,10.11,0,0,1,128.3,408.47Zm.56-.27a3.88,3.88,0,0,0,2.88-.15.78.78,0,0,0,.26-.69c0-.15-.07-.23-.12-.23a.53.53,0,0,0-.25-.05A7.7,7.7,0,0,0,128.86,408.2Z" style="fill:#407BFF"></path><path d="M128.25,408.51a.22.22,0,0,1-.1-.18c0-.11.21-2.44,1.15-3.21a1,1,0,0,1,.81-.24.62.62,0,0,1,.62.5c.17.86-1.45,2.64-2.29,3.1h-.09A.19.19,0,0,1,128.25,408.51Zm1.3-3.16a4.52,4.52,0,0,0-1,2.54c.83-.63,1.86-2,1.76-2.51,0-.05,0-.19-.28-.19H130A.62.62,0,0,0,129.55,405.35Z" style="fill:#407BFF"></path><polygon points="167.82 389.57 159.54 390.44 161.31 399.67 169.59 398.79 167.82 389.57" style="opacity:0.2;isolation:isolate"></polygon><polygon points="124.7 390.36 116.59 390.05 117.56 399.69 125.67 400 124.7 390.36" style="opacity:0.2;isolation:isolate"></polygon><path d="M171.5,396.18H156.62s-15.57-60.65-22.33-86.75c-1.5-5.77-3.39-14.25-5.36-23.66-1.55-7.44-3.16-15.43-4.67-23.11-2.8,29.41,4,130.5,4,130.5l-14.3,2A1560.48,1560.48,0,0,1,99.14,225l42.47-.47c.73,5,8.86,60.64,14,87.62C160.45,338,171.5,396.18,171.5,396.18Z" style="fill:#263238"></path><polygon points="112.17 396.47 130.13 396.37 129.78 391.32 111.12 391.1 112.17 396.47" style="fill:#407BFF"></polygon><polygon points="154.9 396.3 172.39 396.3 171.86 391.12 153.67 390.78 154.9 396.3" style="fill:#407BFF"></polygon><path d="M143.34,226.15,98.59,229c-.48-14.22-1.44-26.74-2.52-37.09-.43-4.16-.88-8-1.32-11.4-1.73-13.41-3.34-21-3.34-21,19-4.06,44.39-3,44.39-3C142.4,177.44,143.34,226.15,143.34,226.15Z" style="fill:#407BFF"></path><path d="M106.77,158.85c4,3.59,13.63,2.26,13.63,2.26s6-1.66,4.77-3.54c-3.56-.59-5.28-2.25-6-4.38a10.06,10.06,0,0,1-.36-4.06,22,22,0,0,1,.29-2.27l-12-8.86C108.72,143.85,110.64,154.61,106.77,158.85Z" style="fill:#e4897b"></path><path d="M109.91,143.63c.48,7.18,6.38,9.16,9.27,9.56a10.06,10.06,0,0,1-.36-4.06Z" style="opacity:0.2;isolation:isolate"></path><path d="M126.7,118.9s3.36,10.79-1.86,15.93-8.34-15.43-8.34-15.43Z" style="fill:#263238"></path><path d="M109.15,146.19a10.13,10.13,0,0,0,12.1,2.14,11.31,11.31,0,0,0,5.59-6.16,11.72,11.72,0,0,0,.37-1.14c1.86-7.19,1-19.13-6.83-22.48a11,11,0,0,0-14.45,5.68,10.85,10.85,0,0,0-.9,5C105.35,137.29,105.16,142,109.15,146.19Z" style="fill:#e4897b"></path><path d="M117.17,131.73c-.06.65.32,1.19.75,1.2s.79-.52.8-1.17-.33-1.19-.75-1.2S117.19,131.07,117.17,131.73Z" style="fill:#263238"></path><path d="M124.56,131.87c0,.65.33,1.19.76,1.19s.78-.52.79-1.17-.33-1.19-.75-1.19S124.58,131.25,124.56,131.87Z" style="fill:#263238"></path><path d="M122.21,132.15a23.46,23.46,0,0,0,3,5.65,3.79,3.79,0,0,1-3.15.53Z" style="fill:#de5753"></path><path d="M127.36,128.76a.41.41,0,0,1-.4,0,3.12,3.12,0,0,0-2.75-.38.38.38,0,0,1-.31-.69h0a3.82,3.82,0,0,1,3.47.42.39.39,0,0,1,.13.53h0A.81.81,0,0,1,127.36,128.76Z" style="fill:#263238"></path><path d="M115.76,128.75a.34.34,0,0,1-.21-.08.39.39,0,0,1,0-.54h0a3.82,3.82,0,0,1,3.42-.81.37.37,0,0,1,.24.48h0a.38.38,0,0,1-.48.25h0a3.1,3.1,0,0,0-2.69.68A.42.42,0,0,1,115.76,128.75Z" style="fill:#263238"></path><path d="M111.1,119.35l.54,3.53a2.64,2.64,0,0,0-1.23,3.36c1.23,2.94-.33,7.61-2.56,9.52,0,0-.1-1.29-1.18-.95s-.59,7,1.63,10.18c0,0-3.3-2.8-5.31-9.8-1.87-6.47-2.24-11.9-1-14.46Z" style="fill:#263238"></path><path d="M101.4,135.78a7.66,7.66,0,0,0,4.3,3.95c2.53.9,4-1.32,3.44-3.8-.5-2.21-2.4-5.4-5-5.2S100.37,133.52,101.4,135.78Z" style="fill:#e4897b"></path><path d="M127.76,126s2.71-6.92-2.13-9.42a4.83,4.83,0,0,0-3.55-4.36c-4.93-1.62-12.94,3.7-17.07,4.49s-5.48,8.46-3.29,13.07c0,0,6.58-3.84,12.83-4.5s5.56-3.4,6.56-4.47,2.54,1.3,2.54,1.3S124.56,120.45,127.76,126Z" style="fill:#263238"></path><path d="M121.53,140.39a22.11,22.11,0,0,0-1.07,2.85l-.54-.07c-2.41-.33-3.42-1.28-3.81-2.24a3.13,3.13,0,0,1-.18-1.47,2.82,2.82,0,0,1,.19-.83,11.45,11.45,0,0,0,4.59,1.63C121.22,140.36,121.53,140.39,121.53,140.39Z" style="fill:#263238"></path><path d="M120.71,140.26l-.34.84c-2.27-.32-3.82-.86-4.44-1.64a2.82,2.82,0,0,1,.19-.83A11.45,11.45,0,0,0,120.71,140.26Z" style="fill:#fff"></path><path d="M119.92,143.17c-2.41-.33-3.42-1.28-3.81-2.24a7.76,7.76,0,0,1,2.61.91A2.87,2.87,0,0,1,119.92,143.17Z" style="fill:#de5753"></path><path d="M110.48,149.45c3.76,2.73,11.14,3.73,14.86-1S128,135.9,128,135.9a12,12,0,0,1-2.4,4.69c-2-2.51-5.52-1.19-5.52-1.19a5.07,5.07,0,0,0-2.94-1.92c-1.69-.19-6.43,0-6.43,0-1.51-1-1.49-5.31-1.49-5.31l-1,.76S106.72,146.72,110.48,149.45Zm4.79-10.65a6.06,6.06,0,0,1,4.57,1.13s4.56-.37,4.72,3.36-3.53,4.61-4.92,3.56,0-2.64,0-2.64l-1.57-.58a2.89,2.89,0,0,1-4.89,1A3.63,3.63,0,0,1,115.27,138.8Z" style="fill:#263238"></path><path d="M110.48,149.45c3.76,2.73,11.14,3.73,14.86-1S128,135.9,128,135.9a12,12,0,0,1-2.4,4.69c-2-2.51-5.52-1.19-5.52-1.19a5.07,5.07,0,0,0-2.94-1.92c-1.69-.19-6.43,0-6.43,0-1.51-1-1.49-5.31-1.49-5.31l-1,.76S106.72,146.72,110.48,149.45Zm4.79-10.65a6.06,6.06,0,0,1,4.57,1.13s4.56-.37,4.72,3.36-3.53,4.61-4.92,3.56,0-2.64,0-2.64l-1.57-.58a2.89,2.89,0,0,1-4.89,1A3.63,3.63,0,0,1,115.27,138.8Z" style="fill:#fff;opacity:0.30000000000000004;isolation:isolate"></path><path d="M131.38,290.81c-1.51-7.71-3.09-16.09-4.59-24.24,0,0-.15-6.66,4.4-15.16C131.19,251.41,133.05,273.35,131.38,290.81Z" style="opacity:0.2;isolation:isolate"></path><path d="M108.52,155.34s2.55,3.7,9.8,6a10.74,10.74,0,0,0,1.6-6.64l6.19,1.78a17.6,17.6,0,0,1,.18,9.67l-7.11-3.56-4.58,6.25s-10.39-3.61-12.24-10.33Z" style="fill:#407BFF"></path><path d="M108.52,155.34s2.55,3.7,9.8,6a10.74,10.74,0,0,0,1.6-6.64l6.19,1.78a17.6,17.6,0,0,1,.18,9.67l-7.11-3.56-4.58,6.25s-10.39-3.61-12.24-10.33Z" style="opacity:0.30000000000000004;isolation:isolate"></path><circle cx="120.73" cy="166.81" r="0.81" style="fill:#fff;opacity:0.30000000000000004;isolation:isolate"></circle><circle cx="121.53" cy="171.98" r="0.81" style="fill:#fff;opacity:0.30000000000000004;isolation:isolate"></circle><path d="M136,153.9s5.06-12.55,7.26-11.85,7.35,9.06,7.55,11.11-4,4.24-4,4.24,17.45,16.89,16.39,22.62c-1,5.37-12.44,1.06-12.44,1.06l2.16-5s-7.2-11.2-12.34-17.51C140.59,158.58,134.76,155.92,136,153.9Z" style="fill:#e4897b"></path><path d="M138.72,140.85c-.77-3.41-3.55-5.7-6.22-5.1s-4.21,3.85-3.44,7.27,3.55,5.7,6.22,5.11S139.49,144.27,138.72,140.85Z" style="fill:#407BFF"></path><path d="M160.38,136.12l-2.55-12s-6.45,7.27-13.05,8.75l1.34,6,.22,1,1.34,6c6.6-1.48,15.53,2.34,15.53,2.34Z" style="fill:#407BFF"></path><path d="M138.72,140.85c-.77-3.41-3.55-5.7-6.22-5.1s-4.21,3.85-3.44,7.27,3.55,5.7,6.22,5.11S139.49,144.27,138.72,140.85Z" style="fill:#fff;opacity:0.8;isolation:isolate"></path><path d="M160.38,136.12l-2.55-12s-6.45,7.27-13.05,8.75l1.34,6,.22,1,1.34,6c6.6-1.48,15.53,2.34,15.53,2.34Z" style="fill:#fff;opacity:0.8;isolation:isolate"></path><path d="M136.53,146.81s2.32,7.11,5.48,10.4a.67.67,0,0,0,.85.07l4.44-3.06a.67.67,0,0,0,.06-1.06c-1.4-1.18-4.59-4.12-6-7.3C139.56,141.71,136.53,146.81,136.53,146.81Z" style="fill:#407BFF"></path><path d="M136.53,146.81s2.32,7.11,5.48,10.4a.67.67,0,0,0,.85.07l4.44-3.06a.67.67,0,0,0,.06-1.06c-1.4-1.18-4.59-4.12-6-7.3C139.56,141.71,136.53,146.81,136.53,146.81Z" style="opacity:0.30000000000000004;isolation:isolate"></path><path d="M163.07,148.38c-1.51.34-4-4.87-5.49-11.63s-1.51-12.52,0-12.86,4,4.87,5.48,11.63S164.58,148,163.07,148.38Z" style="fill:#fff"></path><path d="M163.05,146.51c-1.13.26-3-3.83-4.36-9.29-.08-.31-.15-.63-.22-.95s-.18-.76-.25-1.13c-1.09-5.43-1.11-9.84,0-10.09s3.26,4.31,4.59,10.24S164.26,146.24,163.05,146.51Z" style="opacity:0.4;isolation:isolate"></path><path d="M134.43,149.05s-1.1-1.41-2.28-6.67c-1.28-5.7-.79-7-.79-7L146.09,132s-.38,1.82.82,7.16,2.25,6.55,2.25,6.55Z" style="fill:#407BFF"></path><path d="M158.69,137.22c-.08-.31-.15-.63-.22-.95s-.18-.76-.25-1.13l1.43,0a.62.62,0,0,1,.62.54l0,.22a.62.62,0,0,1-.33.75Z" style="fill:#fff"></path><path d="M158.69,137.22c-.08-.31-.15-.63-.22-.95s-.18-.76-.25-1.13l1.43,0a.62.62,0,0,1,.62.54l0,.22a.62.62,0,0,1-.33.75Z" style="opacity:0.2;isolation:isolate"></path><rect x="129.38" y="175.84" width="8.64" height="10.66" rx="0.53" transform="matrix(0.99, -0.11, 0.11, 0.99, -18.71, 15.44)" style="fill:#fff"></rect><rect x="131.63" y="177.53" width="3.88" height="4.76" transform="translate(-18.58 15.41) rotate(-6.18)" style="fill:#407BFF;opacity:0.4"></rect><rect x="130.76" y="183.78" width="6.52" height="0.67" transform="translate(-19.03 15.49) rotate(-6.18)" style="fill:#407BFF;opacity:0.4"></rect><rect x="131.91" y="184.91" width="4.46" height="0.67" transform="translate(-19.15 15.51) rotate(-6.18)" style="fill:#407BFF;opacity:0.4"></rect><rect x="132.43" y="173.81" width="1.26" height="2.89" transform="translate(-18.08 15.33) rotate(-6.18)" style="fill:#407BFF"></rect><rect x="132.43" y="173.81" width="1.26" height="2.89" transform="translate(-18.08 15.33) rotate(-6.18)" style="opacity:0.30000000000000004;isolation:isolate"></rect><path d="M96.07,191.92c-.43-4.16-.88-8-1.32-11.4a11,11,0,0,1,2.93-2.84A12.8,12.8,0,0,1,96.07,191.92Z" style="opacity:0.2;isolation:isolate"></path><path d="M91.41,188.69s-10.67,17.16-18.32,14.53S56.21,173,56.21,173s-7.65,4.76-9.5,1.86-6.33-9.24-2.9-9.76,13.72-1.15,15.3-.35,1.58,5.23,1.58,5.23,9.5,20,12.4,20.73S80.21,180,80.21,180Z" style="fill:#e4897b"></path><path d="M91.41,159.5c-6.72,1-16,25.62-16,25.62L90,192.69l7.65-10.47s2.63-9.07,0-14.6A22.48,22.48,0,0,0,91.41,159.5Z" style="fill:#407BFF"></path></g></g><g id="freepik--Devices--inject-659"><path d="M178,417.33H28.71a.5.5,0,1,1,0-1H178c24.53,0,28.35-6.25,28.39-6.32a.5.5,0,0,1,.68-.19.49.49,0,0,1,.2.67C207.11,410.77,203.32,417.33,178,417.33Z" style="fill:#263238"></path><path d="M230.48,410.75a.5.5,0,0,1-.5-.49.52.52,0,0,1,.49-.51c20.37-.49,41.3-11.43,57.42-30,15.78-18.19,24.82-40.9,24.82-62.31V186.34a.5.5,0,0,1,.5-.5.5.5,0,0,1,.5.5V317.42c0,21.64-9.13,44.59-25.06,63-16.31,18.81-37.5,29.88-58.15,30.37Z" style="fill:#263238"></path><path d="M222,406.85a.5.5,0,0,1-.06-1c25.25-3.14,45.79-31,45.79-62.07V258.88a.5.5,0,0,1,1,0v84.91a73.18,73.18,0,0,1-13,41.38C247,397.55,235,405.24,222.08,406.85Z" style="fill:#263238"></path><path d="M208.05,410.75a.51.51,0,0,1-.49-.41.5.5,0,0,1,.41-.58s1.68-.37,3.4-3c3-4.53,6.95-17.32-.2-52.08-10.8-52.55-.08-80.42,0-80.7a.5.5,0,1,1,.93.37c-.11.28-10.72,27.9,0,80.12,6.9,33.54,3.8,47.31,0,52.95-1.95,2.9-3.9,3.28-4,3.3Z" style="fill:#263238"></path><path d="M272.47,279.59a75.8,75.8,0,0,1-33.35-8,.5.5,0,0,1,.45-.9c23.4,11.54,46.57,9,58.2,1.79,4.88-3,7.57-6.74,7.57-10.44V186.34a.5.5,0,0,1,.5-.5.5.5,0,0,1,.5.5V262c0,4.05-2.86,8.06-8,11.29C292.24,277.07,283.11,279.59,272.47,279.59Z" style="fill:#263238"></path><path d="M232,278.89a53.37,53.37,0,0,1-9.82-.9c-13.35-2.5-22.66-9.34-24.31-17.84-2.32-12,1-18.22,3.19-20.87a9.07,9.07,0,0,1,6.8-3.63.51.51,0,0,1,.5.5.5.5,0,0,1-.5.5,8.1,8.1,0,0,0-6,3.26c-3.53,4.28-4.62,11.59-3,20,1.55,8,10.78,14.66,23.52,17.05,15,2.82,34.32-.8,43.42-15.27a.5.5,0,0,1,.69-.15.49.49,0,0,1,.16.69C259.19,274.11,245.17,278.89,232,278.89Z" style="fill:#263238"></path><rect x="345.76" y="185.02" width="4.12" height="93.25" style="fill:#263238"></rect><rect x="345.76" y="185.02" width="4.12" height="93.25" style="fill:#fff;opacity:0.30000000000000004;isolation:isolate"></rect><rect x="286.44" y="157.48" width="122.76" height="33.39" rx="1.61" style="fill:#263238"></rect><rect x="289.41" y="160.38" width="116.82" height="27.6" style="fill:#407BFF"></rect><g style="opacity:0.6000000000000001"><rect x="315.37" y="167.23" width="3.22" height="2.61" style="fill:#fff"></rect><rect x="315.37" y="171.32" width="3.22" height="0.89" style="fill:#fff"></rect><polygon points="305.84 174.19 305.84 176.96 309.05 176.96 309.05 175.43 315.37 175.43 315.37 176.96 318.59 176.96 318.59 174.19 305.84 174.19" style="fill:#fff"></polygon><rect x="305.84" y="171.32" width="3.22" height="0.89" style="fill:#fff"></rect><rect x="305.84" y="177.94" width="3.22" height="1.29" style="fill:#fff"></rect><rect x="305.84" y="179.92" width="3.22" height="1.21" style="fill:#fff"></rect><rect x="315.37" y="179.92" width="3.22" height="1.21" style="fill:#fff"></rect><rect x="315.37" y="177.94" width="3.22" height="1.29" style="fill:#fff"></rect><rect x="305.84" y="167.23" width="3.22" height="2.61" style="fill:#fff"></rect><polygon points="327.07 169.84 327.07 169.81 334.38 169.81 334.38 167.23 323.87 167.23 323.87 169.84 327.07 169.84" style="fill:#fff"></polygon><rect x="323.87" y="179.92" width="10.77" height="1.21" style="fill:#fff"></rect><polygon points="334.64 179.23 334.64 178.55 327.07 178.55 327.07 177.94 323.87 177.94 323.87 179.23 334.64 179.23" style="fill:#fff"></polygon><rect x="323.87" y="171.32" width="3.2" height="0.89" style="fill:#fff"></rect><polygon points="323.87 174.19 323.87 176.96 327.07 176.96 327.07 175.33 333.53 175.33 333.53 174.19 323.87 174.19" style="fill:#fff"></polygon><rect x="339.19" y="167.23" width="3.22" height="2.61" style="fill:#fff"></rect><rect x="339.19" y="171.32" width="3.22" height="0.89" style="fill:#fff"></rect><rect x="339.19" y="174.19" width="3.22" height="2.77" style="fill:#fff"></rect><polygon points="349.38 179.23 349.38 178.51 342.41 178.51 342.41 177.94 339.19 177.94 339.19 179.23 349.38 179.23" style="fill:#fff"></polygon><rect x="339.19" y="179.92" width="10.19" height="1.21" style="fill:#fff"></rect><rect x="353.17" y="167.23" width="3.22" height="2.61" style="fill:#fff"></rect><rect x="353.17" y="174.19" width="3.22" height="2.77" style="fill:#fff"></rect><rect x="353.17" y="171.32" width="3.22" height="0.89" style="fill:#fff"></rect><rect x="353.17" y="179.92" width="10.19" height="1.21" style="fill:#fff"></rect><polygon points="363.37 179.23 363.37 178.51 356.39 178.51 356.39 177.94 353.17 177.94 353.17 179.23 363.37 179.23" style="fill:#fff"></polygon><path d="M372.68,169.83a5.06,5.06,0,0,1,1-.1,5.17,5.17,0,0,1,1,.1h5.19a8.11,8.11,0,0,0-12.33,0Z" style="fill:#fff"></path><path d="M369.73,172.21a4.65,4.65,0,0,1,.53-.89h-3.65a7.74,7.74,0,0,0-.3.89Z" style="fill:#fff"></path><path d="M366.05,174.19a7.42,7.42,0,0,0,.53,2.77h3.61a4.65,4.65,0,0,1-.89-2.77Z" style="fill:#fff"></path><path d="M381,172.21a6.22,6.22,0,0,0-.31-.89h-3.64a4.15,4.15,0,0,1,.52.89Z" style="fill:#fff"></path><path d="M378,174.19a4.65,4.65,0,0,1-.89,2.77h3.61a7.42,7.42,0,0,0,.53-2.77Z" style="fill:#fff"></path><path d="M379.18,179.23a6.84,6.84,0,0,0,1-1.29h-4.15a4.57,4.57,0,0,1-4.83,0h-4.15a6.84,6.84,0,0,0,1,1.29Z" style="fill:#fff"></path><path d="M368.94,179.92a8.39,8.39,0,0,0,9.43,0Z" style="fill:#fff"></path><polygon points="388.57 169.84 388.75 167.23 385.06 167.23 385.23 169.84 388.57 169.84" style="fill:#fff"></polygon><polygon points="388.41 172.21 388.47 171.32 385.33 171.32 385.39 172.21 388.41 172.21" style="fill:#fff"></polygon><path d="M388.78,179.23a1.69,1.69,0,0,0-.92-1.29h-1.92a1.71,1.71,0,0,0-.91,1.29Z" style="fill:#fff"></path><path d="M385.06,179.92a1.93,1.93,0,0,0,3.69,0Z" style="fill:#fff"></path></g><g style="opacity:0.6000000000000001"><rect x="306.84" y="169.9" width="3.22" height="1.19" style="fill:#fff"></rect><rect x="316.37" y="169.9" width="3.22" height="1.19" style="fill:#fff"></rect><rect x="316.37" y="177.15" width="3.22" height="0.79" style="fill:#fff"></rect><rect x="316.37" y="179.26" width="3.22" height="0.66" style="fill:#fff"></rect><polygon points="319.59 174.12 319.59 172.27 316.37 172.27 316.37 172.71 310.05 172.71 310.05 172.27 306.84 172.27 306.84 174.12 319.59 174.12" style="fill:#fff"></polygon><rect x="306.84" y="177.15" width="3.22" height="0.79" style="fill:#fff"></rect><rect x="306.84" y="179.26" width="3.22" height="0.66" style="fill:#fff"></rect><rect x="324.87" y="169.9" width="3.2" height="1.19" style="fill:#fff"></rect><rect x="324.87" y="177.15" width="3.2" height="0.79" style="fill:#fff"></rect><rect x="324.87" y="179.26" width="10.77" height="0.66" style="fill:#fff"></rect><polygon points="334.53 174.12 334.53 172.83 328.07 172.83 328.07 172.27 324.87 172.27 324.87 174.12 334.53 174.12" style="fill:#fff"></polygon><rect x="340.19" y="169.9" width="3.22" height="1.19" style="fill:#fff"></rect><rect x="340.19" y="177.15" width="3.22" height="0.79" style="fill:#fff"></rect><rect x="340.19" y="179.26" width="10.19" height="0.66" style="fill:#fff"></rect><rect x="340.19" y="172.27" width="3.22" height="1.85" style="fill:#fff"></rect><rect x="354.17" y="169.9" width="3.22" height="1.19" style="fill:#fff"></rect><rect x="354.17" y="172.27" width="3.22" height="1.85" style="fill:#fff"></rect><rect x="354.17" y="177.15" width="3.22" height="0.79" style="fill:#fff"></rect><rect x="354.17" y="179.26" width="10.19" height="0.66" style="fill:#fff"></rect><path d="M377.84,171.09h3.71a6.33,6.33,0,0,0-.68-1.19h-5A4.15,4.15,0,0,1,377.84,171.09Z" style="fill:#fff"></path><path d="M371.47,171.09a4.15,4.15,0,0,1,2-1.19h-5a6.33,6.33,0,0,0-.68,1.19Z" style="fill:#fff"></path><path d="M382.26,174.12a7.94,7.94,0,0,0-.26-1.85h-3.38a5,5,0,0,1,.38,1.85Z" style="fill:#fff"></path><path d="M379.33,179.92a6.48,6.48,0,0,0,.81-.66h-11a6.48,6.48,0,0,0,.81.66Z" style="fill:#fff"></path><path d="M381.2,177.94a5.51,5.51,0,0,0,.44-.79H378a3.87,3.87,0,0,1-1,.79Z" style="fill:#fff"></path><path d="M372.31,177.94a3.82,3.82,0,0,1-1-.79h-3.68a5.51,5.51,0,0,0,.44.79Z" style="fill:#fff"></path><path d="M370.31,174.12a5,5,0,0,1,.38-1.85h-3.38a7.94,7.94,0,0,0-.26,1.85Z" style="fill:#fff"></path><polygon points="386.4 172.27 386.67 176.31 389.13 176.31 389.41 172.27 386.4 172.27" style="fill:#fff"></polygon><polygon points="389.49 171.09 389.57 169.9 386.24 169.9 386.32 171.09 389.49 171.09" style="fill:#fff"></polygon><path d="M389.75,179.92a1.56,1.56,0,0,0,.06-.44,1.8,1.8,0,0,0,0-.22H386a1.8,1.8,0,0,0,0,.22,1.56,1.56,0,0,0,.06.44Z" style="fill:#fff"></path></g><path d="M331.24,274.2H364.4a2.59,2.59,0,0,1,2.59,2.59v1.48a0,0,0,0,1,0,0H328.65a0,0,0,0,1,0,0v-1.48A2.59,2.59,0,0,1,331.24,274.2Z" style="fill:#263238"></path><polygon points="358.77 275.35 336.88 275.35 338.88 271.79 356.77 271.79 358.77 275.35" style="fill:#263238"></polygon><polygon points="274.25 241.64 285.35 241.64 282.39 273.43 299.95 276.06 299.95 278.27 262.98 278.27 262.98 276.06 270.55 273.43 274.25 241.64" style="fill:#263238"></polygon><path d="M317.34,261.81a3.45,3.45,0,0,1-3.48,3.87H246.67a4.32,4.32,0,0,1-4.21-3.87l-4-43a3.72,3.72,0,0,1,.09-1.26,3.41,3.41,0,0,1,3.39-2.6h67.19a4.31,4.31,0,0,1,4.21,3.86Z" style="fill:#263238"></path><path d="M246.67,263.51a2.15,2.15,0,0,1-2.06-1.89l-4-43a1.52,1.52,0,0,1,0-.53,1.27,1.27,0,0,1,1.3-1h67.19a2.15,2.15,0,0,1,2.06,1.9l4,43a1.41,1.41,0,0,1-.33,1.09,1.32,1.32,0,0,1-1,.41Z" style="fill:#407BFF"></path><path d="M246.67,263.51a2.15,2.15,0,0,1-2.06-1.89l-4-43a1.52,1.52,0,0,1,0-.53,1.27,1.27,0,0,1,1.3-1h67.19a2.15,2.15,0,0,1,2.06,1.9l4,43a1.41,1.41,0,0,1-.33,1.09,1.32,1.32,0,0,1-1,.41Z" style="fill:#fff;opacity:0.6000000000000001;isolation:isolate"></path><polygon points="314.27 262.85 245.69 262.85 241.54 218.43 310.11 218.43 314.27 262.85" style="fill:#407BFF"></polygon><polygon points="310.45 222.06 241.88 222.06 241.54 218.43 310.11 218.43 310.45 222.06" style="opacity:0.5"></polygon><path d="M304.34,220.24a.63.63,0,0,1-.63.7.78.78,0,0,1-.76-.7.63.63,0,0,1,.63-.69A.78.78,0,0,1,304.34,220.24Z" style="fill:#407BFF"></path><path d="M309.07,220.24a.62.62,0,0,1-.62.7.77.77,0,0,1-.76-.7.61.61,0,0,1,.63-.69A.77.77,0,0,1,309.07,220.24Z" style="fill:#407BFF"></path><path d="M306.71,220.24a.63.63,0,0,1-.63.7.78.78,0,0,1-.76-.7.62.62,0,0,1,.63-.69A.78.78,0,0,1,306.71,220.24Z" style="fill:#407BFF"></path><polygon points="250 257.52 246.36 257.52 243.15 223.15 246.78 223.15 250 257.52" style="fill:#fff;opacity:0.4"></polygon><polygon points="314.11 261.17 245.54 261.17 245.69 262.85 314.27 262.85 314.11 261.17" style="fill:#fff;opacity:0.4"></polygon><polygon points="310.34 240.64 249.75 240.64 248.29 224.41 308.88 224.41 310.34 240.64" style="fill:#263238"></polygon><polygon points="311.98 258.88 251.39 258.88 249.93 242.65 310.52 242.65 311.98 258.88" style="fill:#263238"></polygon><path d="M274,232.43a3.25,3.25,0,0,0-.54-1.57,2.57,2.57,0,0,0-.27,1.13,5.7,5.7,0,0,0-.58-2.11,4.55,4.55,0,0,0-.23,1.74,16.05,16.05,0,0,0-.67-3.22,15.41,15.41,0,0,0-.08,3.46,7.34,7.34,0,0,0-.56-2,7,7,0,0,0-.19,2,22.39,22.39,0,0,0-.74-3.89,20.76,20.76,0,0,0,0,3.78,13.26,13.26,0,0,0-.63-2.85,12.63,12.63,0,0,0-.14,2.74,42.65,42.65,0,0,0-.88-5.53,39,39,0,0,0,.09,5.3,30.33,30.33,0,0,0-.77-4.37,29.34,29.34,0,0,0,0,4.78,7.43,7.43,0,0,0-.56-2,7,7,0,0,0-.2,2,21.3,21.3,0,0,0-.73-3.89,19.9,19.9,0,0,0-.05,3.78,13.29,13.29,0,0,0-.64-2.85,13.47,13.47,0,0,0-.1,3.17,15.32,15.32,0,0,0-.63-2.83,13.91,13.91,0,0,0-.12,2.95A15.69,15.69,0,0,0,264,229a15,15,0,0,0-.11,3.07,7.35,7.35,0,0,0-.58-2.18,6.67,6.67,0,0,0-.19,2,22.21,22.21,0,0,0-.74-3.89,20.66,20.66,0,0,0-.05,3.77,13.94,13.94,0,0,0-.63-2.84,12.49,12.49,0,0,0-.12,3,33.84,33.84,0,0,0-.8-4.62,33.26,33.26,0,0,0,.06,4.89,24,24,0,0,0-.72-3.78,21.91,21.91,0,0,0-.05,3.71,7.87,7.87,0,0,0-.59-2.26,7.07,7.07,0,0,0-.18,2.33,14.92,14.92,0,0,0-.64-2.9,14.49,14.49,0,0,0-.12,2.87A7,7,0,0,0,258,230a6,6,0,0,0-.2,2.09,6.65,6.65,0,0,0-.56-1.92,6.17,6.17,0,0,0-.2,1.95,6.66,6.66,0,0,0-.57-2.08,5.64,5.64,0,0,0-.21,2,7.57,7.57,0,0,0-.58-2.15,6.87,6.87,0,0,0-.19,2.11,19.3,19.3,0,0,0-.71-3.62,18.81,18.81,0,0,0-.07,3.52,13.47,13.47,0,0,0-.64-2.94,12.44,12.44,0,0,0-.13,2.92,13.3,13.3,0,0,0-.64-2.92,12.52,12.52,0,0,0-.12,2.93,10.84,10.84,0,0,0-.62-2.62,10.28,10.28,0,0,0-.15,2.59,13.5,13.5,0,0,0-.65-2.94,12.82,12.82,0,0,0-.11,3,7.66,7.66,0,0,0-.57-2.06,6.7,6.7,0,0,0-.19,2,22.39,22.39,0,0,0-.74-3.89,19.8,19.8,0,0,0-.05,3.77,13.34,13.34,0,0,0-.64-2.84,14.15,14.15,0,0,0-.08,3.56,15,15,0,0,0,.72,3.55,12.07,12.07,0,0,0,.13-2.81A21.63,21.63,0,0,0,251,237a20,20,0,0,0,0-3.87,7.57,7.57,0,0,0,.56,2,6.75,6.75,0,0,0,.2-2.09,13.58,13.58,0,0,0,.65,2.95,12.35,12.35,0,0,0,.12-2.91,10.9,10.9,0,0,0,.61,2.57,9.87,9.87,0,0,0,.16-2.54,13.58,13.58,0,0,0,.65,3,12.18,12.18,0,0,0,.12-2.89,13.64,13.64,0,0,0,.64,2.89,12.09,12.09,0,0,0,.14-2.75,19.15,19.15,0,0,0,.72,3.68,19.51,19.51,0,0,0,0-3.82,7.24,7.24,0,0,0,.56,2,7,7,0,0,0,.18-2.18,6.77,6.77,0,0,0,.56,1.94,5.75,5.75,0,0,0,.21-1.88,6.72,6.72,0,0,0,.58,2.12,6.49,6.49,0,0,0,.2-2.14,6.23,6.23,0,0,0,.54,1.86,5.57,5.57,0,0,0,.21-1.71h0a17.38,17.38,0,0,0,.75,3.84,15.6,15.6,0,0,0,.06-3.74,7.4,7.4,0,0,0,.54,1.88,6.62,6.62,0,0,0,.2-1.87,25.31,25.31,0,0,0,.82,4.66,22.15,22.15,0,0,0,0-3.82,32.76,32.76,0,0,0,.81,4.75,35.78,35.78,0,0,0-.09-5.38,13,13,0,0,0,.61,2.59,12.63,12.63,0,0,0,.12-2.81,21.66,21.66,0,0,0,.73,3.74,21.65,21.65,0,0,0,0-3.86,6.91,6.91,0,0,0,.56,2,7.19,7.19,0,0,0,.2-2,15.91,15.91,0,0,0,.69,3.4,14,14,0,0,0,.12-3,15,15,0,0,0,.67,3.18,14.7,14.7,0,0,0,.09-3.38,13.25,13.25,0,0,0,.61,2.64,12.07,12.07,0,0,0,.13-2.81,20.72,20.72,0,0,0,.72,3.74,19.92,19.92,0,0,0,0-3.86,7.6,7.6,0,0,0,.56,2,6.61,6.61,0,0,0,.2-2,31.61,31.61,0,0,0,.82,4.76,28.32,28.32,0,0,0,0-4.32,41.61,41.61,0,0,0,.86,5.25,40.26,40.26,0,0,0-.11-5.49,12.57,12.57,0,0,0,.63,2.7,12.7,12.7,0,0,0,.12-2.82,21.59,21.59,0,0,0,.73,3.75,20.85,20.85,0,0,0,0-3.87,6.88,6.88,0,0,0,.56,2,7.13,7.13,0,0,0,.19-2.15,15.11,15.11,0,0,0,.66,3.12,15.86,15.86,0,0,0,.08-3.51,5.17,5.17,0,0,0,.51,1.59,4.73,4.73,0,0,0,.24-1.61,3.11,3.11,0,0,0,.51,1.41A2.83,2.83,0,0,0,274,232.43Z" style="fill:#407BFF"></path><path d="M309.24,232.53a44.94,44.94,0,0,0-1-6.35,42.62,42.62,0,0,0,.09,5.3,29,29,0,0,0-.77-4.37,29.94,29.94,0,0,0,0,4.64A13.4,13.4,0,0,0,307,229a12.67,12.67,0,0,0-.11,3,7.79,7.79,0,0,0-.57-2.08,6.71,6.71,0,0,0-.2,2,21.49,21.49,0,0,0-.74-3.89,22,22,0,0,0,0,3.89,7.09,7.09,0,0,0-.56-2,6.7,6.7,0,0,0-.19,2,22.39,22.39,0,0,0-.74-3.89,20.66,20.66,0,0,0,0,3.77,13.94,13.94,0,0,0-.63-2.84,12,12,0,0,0-.14,2.74,42.65,42.65,0,0,0-.88-5.53,39,39,0,0,0,.09,5.3,30.61,30.61,0,0,0-.78-4.37,31.77,31.77,0,0,0,0,4.78,7.15,7.15,0,0,0-.55-2,6.71,6.71,0,0,0-.2,2A20.66,20.66,0,0,0,300,228a20.75,20.75,0,0,0,0,3.78,13.29,13.29,0,0,0-.64-2.85,12,12,0,0,0-.13,2.74,44.47,44.47,0,0,0-.89-5.53,42.62,42.62,0,0,0,.09,5.3,29,29,0,0,0-.77-4.37,29.34,29.34,0,0,0,0,4.78,7.54,7.54,0,0,0-.56-2,6.7,6.7,0,0,0-.19,2,22.39,22.39,0,0,0-.74-3.89,20.76,20.76,0,0,0-.05,3.78,13.89,13.89,0,0,0-.63-2.85,12,12,0,0,0-.14,2.74,42.65,42.65,0,0,0-.88-5.53,39.08,39.08,0,0,0,.09,5.3,30.37,30.37,0,0,0-.78-4.37,31.77,31.77,0,0,0,0,4.78,7.05,7.05,0,0,0-.55-2,6.71,6.71,0,0,0-.2,2,21.49,21.49,0,0,0-.74-3.89,21,21,0,0,0,0,3.8,13.35,13.35,0,0,0-.63-2.79,12.72,12.72,0,0,0-.12,3,6.93,6.93,0,0,0-.55-2,6.51,6.51,0,0,0-.2,2.14,5.23,5.23,0,0,0-.53-1.7,4.73,4.73,0,0,0-.23,1.82,3.61,3.61,0,0,0-.51-1.45,3.46,3.46,0,0,0-.24,1.54,3.83,3.83,0,0,0-.51-1.41,3.4,3.4,0,0,0-.26,1.42,4,4,0,0,0-.53-1.6,3.72,3.72,0,0,0-.24,1.53,4.14,4.14,0,0,0-.52-1.54,3.43,3.43,0,0,0-.25,1.43,5.88,5.88,0,0,0-.56-1.93,5.11,5.11,0,0,0-.23,1.76,7.62,7.62,0,0,0-.58-2.21,6.44,6.44,0,0,0-.2,1.94,19,19,0,0,0-.74-3.8,18.56,18.56,0,0,0-.06,3.65A13.34,13.34,0,0,0,284,229a12.43,12.43,0,0,0-.12,2.92,13.33,13.33,0,0,0-.65-2.92,12.62,12.62,0,0,0-.13,2.74,42.65,42.65,0,0,0-.88-5.53,39,39,0,0,0,.09,5.3,30.61,30.61,0,0,0-.78-4.37,30.5,30.5,0,0,0,0,4.78,7.79,7.79,0,0,0-.55-2,6.68,6.68,0,0,0-.2,2,22.21,22.21,0,0,0-.74-3.89,19.89,19.89,0,0,0,0,3.78,13.92,13.92,0,0,0-.64-2.85,12.32,12.32,0,0,0-.14,2.57,34.61,34.61,0,0,0-.88-5.36,31.93,31.93,0,0,0,.05,4.89,27.52,27.52,0,0,0-.73-4,27.89,27.89,0,0,0,0,4.57,13.4,13.4,0,0,0-.62-2.71,12.68,12.68,0,0,0-.12,3,7.43,7.43,0,0,0-.57-2.08,6.67,6.67,0,0,0-.19,2,22.21,22.21,0,0,0-.74-3.89,21.47,21.47,0,0,0,0,4.39,5,5,0,0,0-.51-1.52,4.78,4.78,0,0,0-.22,1.87,2.94,2.94,0,0,0-.48-1.14,2.66,2.66,0,0,0-.27,1.49,3,3,0,0,0,.54,1.5,2.42,2.42,0,0,0,.27-1.21,5.32,5.32,0,0,0,.54,1.73,4.57,4.57,0,0,0,.23-1.75,19.87,19.87,0,0,0,.71,3.61,21.65,21.65,0,0,0,0-3.86,6.91,6.91,0,0,0,.56,2,6.86,6.86,0,0,0,.19-2.06,13.38,13.38,0,0,0,.66,3,12.38,12.38,0,0,0,.12-2.85,28.11,28.11,0,0,0,.77,4.28,27.92,27.92,0,0,0,0-4.48,30.23,30.23,0,0,0,.76,4.26,30.28,30.28,0,0,0,0-4.26,13.47,13.47,0,0,0,.67,3.05,13.27,13.27,0,0,0,.13-2.81,20.72,20.72,0,0,0,.72,3.74,19.92,19.92,0,0,0,0-3.86,7.24,7.24,0,0,0,.56,2,6.61,6.61,0,0,0,.2-2,31.58,31.58,0,0,0,.81,4.76,28.32,28.32,0,0,0,0-4.32,39.88,39.88,0,0,0,.86,5.25,40.4,40.4,0,0,0-.11-5.5,13.1,13.1,0,0,0,.62,2.71,12.73,12.73,0,0,0,.13-2.89,12.51,12.51,0,0,0,.64,2.89,12.51,12.51,0,0,0,.12-3,17.07,17.07,0,0,0,.67,3.25,16.22,16.22,0,0,0,.08-3.34,7.48,7.48,0,0,0,.58,2.15,6.85,6.85,0,0,0,.19-2.15,5.59,5.59,0,0,0,.54,1.78A5.11,5.11,0,0,0,287,233a3.87,3.87,0,0,0,.52,1.53,3.5,3.5,0,0,0,.25-1.48,4.17,4.17,0,0,0,.52,1.56,3.59,3.59,0,0,0,.25-1.5,3.9,3.9,0,0,0,.52,1.5,3.34,3.34,0,0,0,.25-1.51,3.87,3.87,0,0,0,.51,1.42,3.39,3.39,0,0,0,.25-1.46,5.46,5.46,0,0,0,.54,1.77,4.65,4.65,0,0,0,.23-1.76,7,7,0,0,0,.56,2,6,6,0,0,0,.21-2,12.94,12.94,0,0,0,.65,2.94,12,12,0,0,0,.13-2.8,20.46,20.46,0,0,0,.72,3.73,20,20,0,0,0,0-3.87,7.57,7.57,0,0,0,.56,2,6.61,6.61,0,0,0,.2-2,31.61,31.61,0,0,0,.82,4.76,28.32,28.32,0,0,0,0-4.32,41.61,41.61,0,0,0,.86,5.25,40.26,40.26,0,0,0-.11-5.49,13.16,13.16,0,0,0,.62,2.7,12.07,12.07,0,0,0,.13-2.81A22.62,22.62,0,0,0,297,237a20.85,20.85,0,0,0,0-3.87,7.18,7.18,0,0,0,.55,2,7,7,0,0,0,.21-2,30.37,30.37,0,0,0,.81,4.76,28.32,28.32,0,0,0,0-4.32,39.84,39.84,0,0,0,.85,5.25,40.25,40.25,0,0,0-.1-5.49,13.16,13.16,0,0,0,.62,2.7,12.07,12.07,0,0,0,.13-2.81,20.72,20.72,0,0,0,.72,3.74,20,20,0,0,0,0-3.87,7.57,7.57,0,0,0,.56,2,6.61,6.61,0,0,0,.2-2,31.61,31.61,0,0,0,.82,4.76,28.32,28.32,0,0,0,0-4.32,41.61,41.61,0,0,0,.86,5.25,40.26,40.26,0,0,0-.11-5.49,13.16,13.16,0,0,0,.62,2.7,12.07,12.07,0,0,0,.13-2.81,22.62,22.62,0,0,0,.72,3.74,20.85,20.85,0,0,0,.05-3.87,7.18,7.18,0,0,0,.55,2,6.25,6.25,0,0,0,.2-2,22,22,0,0,0,.74,3.87,20,20,0,0,0,0-3.87,7.57,7.57,0,0,0,.56,2,6.55,6.55,0,0,0,.19-2.06,13.38,13.38,0,0,0,.66,3,12.08,12.08,0,0,0,.13-2.75,30.9,30.9,0,0,0,.8,4.61,28.32,28.32,0,0,0,0-4.32,41.57,41.57,0,0,0,.85,5.25A43.29,43.29,0,0,0,309.24,232.53Z" style="fill:#407BFF"></path><polygon points="262.75 240.64 262.24 240.64 260.79 224.41 261.29 224.41 262.75 240.64" style="fill:#fff;opacity:0.5"></polygon><polygon points="277.36 250.46 274.32 250.46 273.95 246.29 276.99 246.29 277.36 250.46" style="fill:#fff;opacity:0.5"></polygon><path d="M262.13,249h-1.66l-.28.8h-.33l1.09-3h.31l1.63,3h-.34Zm-.14-.25-.86-1.62-.57,1.62Z" style="fill:#407BFF"></path><path d="M266.21,249c.05.51-.3.8-1,.8H263.8l-.27-3h1.28c.67,0,1.07.29,1.12.78a.62.62,0,0,1-.4.68A.79.79,0,0,1,266.21,249Zm-2.34-1.94.1,1.09h.94c.48,0,.74-.18.71-.54s-.33-.55-.8-.55Zm2,1.92c0-.39-.34-.57-.86-.57H264l.1,1.13h1.05C265.66,249.57,265.93,249.4,265.9,249Z" style="fill:#407BFF"></path><path d="M267,248.33a1.35,1.35,0,0,1,1.42-1.52,1.51,1.51,0,0,1,1.12.44l-.18.2a1.27,1.27,0,0,0-.91-.36,1.09,1.09,0,0,0-1.14,1.24,1.36,1.36,0,0,0,1.37,1.25,1.06,1.06,0,0,0,.84-.36l.22.2a1.32,1.32,0,0,1-1,.44A1.67,1.67,0,0,1,267,248.33Z" style="fill:#407BFF"></path><path d="M270.63,246.83h1.21a1.65,1.65,0,0,1,1.73,1.5,1.33,1.33,0,0,1-1.46,1.5H270.9Zm1.44,2.73a1.09,1.09,0,0,0,1.19-1.23,1.33,1.33,0,0,0-1.41-1.22H271l.22,2.45Z" style="fill:#407BFF"></path><path d="M276.91,249.56l0,.27h-2.1l-.27-3h2l0,.28H274.9l.1,1.07h1.53l0,.26H275l.1,1.12Z" style="fill:#407BFF"></path><path d="M278.16,247.11l.11,1.18h1.54l0,.27H278.3l.11,1.27h-.31l-.27-3h2l0,.28Z" style="fill:#407BFF"></path><path d="M283.13,248.33h.3l.1,1.15a1.53,1.53,0,0,1-1.06.38,1.68,1.68,0,0,1-1.7-1.53,1.35,1.35,0,0,1,1.43-1.52,1.55,1.55,0,0,1,1.14.43l-.17.2a1.3,1.3,0,0,0-.93-.35,1.1,1.1,0,0,0-1.16,1.24,1.37,1.37,0,0,0,1.38,1.25,1.26,1.26,0,0,0,.76-.23Z" style="fill:#407BFF"></path><path d="M287.09,246.83l.26,3h-.3l-.13-1.38h-1.86l.13,1.38h-.32l-.27-3h.32l.12,1.34h1.86l-.12-1.34Z" style="fill:#407BFF"></path><path d="M288.48,246.83h.31l.27,3h-.31Z" style="fill:#407BFF"></path><path d="M289.91,249.43l.17-.21a.82.82,0,0,0,.67.36c.37,0,.54-.21.5-.66l-.17-1.81H290l0-.28h1.4l.18,2.08c.06.64-.21,1-.78,1A1.07,1.07,0,0,1,289.91,249.43Z" style="fill:#407BFF"></path><path d="M293.8,248.42l-.55.62.07.79H293l-.27-3h.32l.16,1.82,1.58-1.82h.36L294,248.19l1.52,1.64h-.37Z" style="fill:#407BFF"></path><path d="M296.18,246.83h.31l.25,2.73h1.66l0,.27h-2Z" style="fill:#407BFF"></path><path d="M302.18,246.83l.27,3h-.3l-.21-2.4-1,2h-.15l-1.34-2,.21,2.38h-.3l-.27-3h.26l1.49,2.23,1.08-2.23Z" style="fill:#407BFF"></path><path d="M261.66,252l.27,3h-.26l-2.13-2.43.22,2.43h-.31l-.27-3h.26l2.13,2.43-.22-2.43Z" style="fill:#407BFF"></path><path d="M262.93,253.47a1.35,1.35,0,0,1,1.42-1.53,1.67,1.67,0,0,1,1.69,1.53,1.35,1.35,0,0,1-1.42,1.53A1.67,1.67,0,0,1,262.93,253.47Zm2.8,0a1.34,1.34,0,0,0-1.35-1.24,1.09,1.09,0,0,0-1.14,1.24,1.34,1.34,0,0,0,1.36,1.24A1.09,1.09,0,0,0,265.73,253.47Z" style="fill:#407BFF"></path><path d="M269.46,253c.05.64-.37,1-1.12,1h-.8l.08.95h-.31l-.27-3h1.11A1.16,1.16,0,0,1,269.46,253Zm-.32,0c0-.48-.38-.75-1-.75h-.79l.13,1.5h.79C268.9,253.75,269.19,253.47,269.14,253Z" style="fill:#407BFF"></path><path d="M273.79,255.22a.81.81,0,0,1-.69.35A1.53,1.53,0,0,1,272,255a1.68,1.68,0,0,1-1.65-1.53,1.36,1.36,0,0,1,1.43-1.53,1.67,1.67,0,0,1,1.69,1.53,1.34,1.34,0,0,1-1.09,1.5,1,1,0,0,0,.68.34.67.67,0,0,0,.54-.27Zm-1.73-.51a1.09,1.09,0,0,0,1.13-1.24,1.36,1.36,0,0,0-1.36-1.24,1.1,1.1,0,0,0-1.14,1.24A1.36,1.36,0,0,0,272.06,254.71Z" style="fill:#407BFF"></path><path d="M276.79,255l-.76-1h-1l.09.95h-.31l-.27-3h1.11a1.16,1.16,0,0,1,1.3,1,.82.82,0,0,1-.59.94l.82,1Zm-.19-2c0-.48-.38-.75-1-.75h-.79l.14,1.5h.79C276.35,253.75,276.64,253.47,276.6,253Z" style="fill:#407BFF"></path><path d="M277.94,254.61l.1-.25a1.57,1.57,0,0,0,1,.37c.56,0,.78-.24.75-.54-.07-.82-1.85-.31-1.95-1.42,0-.44.26-.83,1-.83a1.75,1.75,0,0,1,.94.27l-.08.25a1.7,1.7,0,0,0-.84-.25c-.54,0-.76.25-.73.55.07.82,1.85.32,1.95,1.42,0,.44-.27.82-1,.82A1.74,1.74,0,0,1,277.94,254.61Z" style="fill:#407BFF"></path><path d="M281.58,252.25h-1l0-.28h2.4l0,.28h-1l.24,2.72h-.31Z" style="fill:#407BFF"></path><path d="M283.91,253.69l-.15-1.72h.31l.15,1.71c.07.71.43,1,1,1s.89-.32.82-1l-.15-1.71h.31l.15,1.72c.08.86-.34,1.31-1.1,1.31A1.28,1.28,0,0,1,283.91,253.69Z" style="fill:#407BFF"></path><path d="M290,252,289,255h-.31l-1.58-3h.34l1.37,2.61.91-2.61Z" style="fill:#407BFF"></path><path d="M295,252l-.73,3H294l-1.1-2.56-.65,2.56h-.32l-1.27-3H291l1.09,2.58.65-2.58h.3l1.1,2.59.64-2.59Z" style="fill:#407BFF"></path><path d="M298.13,255l-1.08-1.32-.83,1.32h-.36l1-1.54L295.66,252H296l1,1.23.78-1.23h.34l-.93,1.45L298.5,255Z" style="fill:#407BFF"></path><path d="M300.27,253.93l.1,1h-.31l-.09-1-1.37-2h.34l1.17,1.68L301,252h.32Z" style="fill:#407BFF"></path><path d="M304.59,254.7l0,.27h-2.43l0-.22,1.74-2.5H302l0-.28h2.35l0,.22-1.74,2.51Z" style="fill:#407BFF"></path><path d="M179.46,262.51c-11.94,0-17-29.95-21.83-58.92-3.71-22-7.2-42.86-13.3-47.85a.5.5,0,0,1-.07-.7.5.5,0,0,1,.7-.08c6.39,5.23,9.92,26.23,13.65,48.46,4.57,27.23,9.75,58.09,20.85,58.09,10.29,0,15.31-15.42,19-26.67,2.4-7.36,4.12-12.67,6.72-12.67h1.73a.5.5,0,0,1,0,1h-1.73c-1.87,0-3.76,5.82-5.77,12C195.63,246.69,190.48,262.51,179.46,262.51Z" style="fill:#263238"></path><rect x="203.84" y="218.26" width="42.92" height="60.01" style="fill:#263238"></rect><rect x="226.78" y="218.26" width="19.97" height="60.01" style="fill:#fff;opacity:0.30000000000000004;isolation:isolate"></rect><polygon points="212.01 218.26 226.78 258.74 246.75 258.74 246.75 260.06 226.78 260.06 209.37 218.26 212.01 218.26" style="fill:#fff;opacity:0.30000000000000004;isolation:isolate"></polygon><path d="M238.51,233.35v1.13a1.72,1.72,0,0,1,0,3.35v20.64h-.77V237.83a1.72,1.72,0,0,1,0-3.35v-1.13a2.92,2.92,0,0,1,0-5.8v-9.29h.77v9.29a2.92,2.92,0,0,1,0,5.8Z" style="opacity:0.30000000000000004"></path><path d="M240.57,230.45a2.44,2.44,0,1,1-2.44-2.44A2.44,2.44,0,0,1,240.57,230.45Z" style="fill:#fff;opacity:0.30000000000000004;isolation:isolate"></path><path d="M239.35,236.15a1.22,1.22,0,1,1-1.22-1.22A1.22,1.22,0,0,1,239.35,236.15Z" style="fill:#fff;opacity:0.30000000000000004;isolation:isolate"></path><rect x="200.93" y="396.47" width="30.97" height="19.77" rx="2.61" style="fill:#263238"></rect><rect x="212.14" y="396.47" width="19.77" height="19.77" rx="2.61" style="fill:#fff;opacity:0.2;isolation:isolate"></rect><polygon points="245.29 416.83 239.99 416.83 230.49 284.46 237.51 284.46 245.29 416.83" style="fill:#263238"></polygon><polygon points="245.29 416.83 239.99 416.83 230.95 291.04 230.48 284.67 237.51 284.67 237.89 291.04 245.29 416.83" style="fill:#fff;opacity:0.4;isolation:isolate"></polygon><polygon points="237.89 290.72 230.95 290.72 230.48 284.67 237.51 284.67 237.89 290.72" style="opacity:0.2;isolation:isolate"></polygon><polygon points="370.5 416.83 365.21 416.83 364.34 284.46 371.36 284.46 370.5 416.83" style="fill:#263238"></polygon><polygon points="371.37 284.67 371.23 306.03 370.5 416.83 365.21 416.83 364.48 306.03 364.34 284.67 371.37 284.67" style="fill:#fff;opacity:0.5;isolation:isolate"></polygon><polygon points="371.37 284.67 371.23 306.27 364.48 306.27 364.34 284.67 371.37 284.67" style="opacity:0.2;isolation:isolate"></polygon><polygon points="426.68 416.83 421.39 416.83 411.88 284.46 418.9 284.46 426.68 416.83" style="fill:#263238"></polygon><polygon points="426.68 416.83 421.39 416.83 412.34 291.04 411.88 284.67 418.9 284.67 419.28 291.04 426.68 416.83" style="fill:#fff;opacity:0.5;isolation:isolate"></polygon><polygon points="419.28 290.72 412.34 290.72 411.88 284.67 418.9 284.67 419.28 290.72" style="opacity:0.2;isolation:isolate"></polygon><polygon points="184.75 416.83 179.46 416.83 187.24 284.46 194.26 284.46 184.75 416.83" style="fill:#263238"></polygon><polygon points="194.26 284.67 193.79 291.04 184.75 416.83 179.46 416.83 186.85 291.04 187.24 284.67 194.26 284.67" style="fill:#fff;opacity:0.5;isolation:isolate"></polygon><polygon points="187.24 284.67 194.26 284.67 193.79 290.72 186.85 290.72 187.24 284.67" style="opacity:0.2;isolation:isolate"></polygon><path d="M181.67,281.14H424.46a0,0,0,0,1,0,0v4.47a2.16,2.16,0,0,1-2.16,2.16H183.84a2.16,2.16,0,0,1-2.16-2.16v-4.47A0,0,0,0,1,181.67,281.14Z" style="fill:#407BFF"></path><path d="M181.67,281.14H424.46a0,0,0,0,1,0,0v4.47a2.16,2.16,0,0,1-2.16,2.16H183.84a2.16,2.16,0,0,1-2.16-2.16v-4.47A0,0,0,0,1,181.67,281.14Z" style="fill:#fff;opacity:0.6000000000000001;isolation:isolate"></path><rect x="181.67" y="281.14" width="242.79" height="3.32" style="opacity:0.2;isolation:isolate"></rect><path d="M427.74,282H178.39a1.87,1.87,0,0,1-1.86-1.87h0a1.87,1.87,0,0,1,1.86-1.87H427.74a1.87,1.87,0,0,1,1.87,1.87h0A1.87,1.87,0,0,1,427.74,282Z" style="fill:#407BFF"></path><path d="M427.74,282H178.39a1.87,1.87,0,0,1-1.86-1.87h0a1.87,1.87,0,0,1,1.86-1.87H427.74a1.87,1.87,0,0,1,1.87,1.87h0A1.87,1.87,0,0,1,427.74,282Z" style="fill:#fff;opacity:0.6000000000000001;isolation:isolate"></path></g></svg>