<svg xmlns="http://www.w3.org/2000/svg" viewBox="0 0 500 500"><g id="freepik--Server--inject-130"><path d="M115,177.21H239.21a0,0,0,0,1,0,0v237a2,2,0,0,1-2,2H117.07a2,2,0,0,1-2-2v-237A0,0,0,0,1,115,177.21Z" style="fill:#407BFF"></path><rect x="232.26" y="370.45" width="8.64" height="31.49" style="fill:#407BFF"></rect><rect x="229.65" y="370.45" width="2.61" height="31.49" transform="translate(461.91 772.38) rotate(180)" style="opacity:0.2"></rect><rect x="229.65" y="370.45" width="11.25" height="31.49" style="opacity:0.1"></rect><ellipse cx="236.58" cy="386.19" rx="3.06" ry="13.51" style="fill:#407BFF"></ellipse><path d="M115,177.21H223a0,0,0,0,1,0,0v237a2,2,0,0,1-2,2H117.07a2,2,0,0,1-2-2v-237A0,0,0,0,1,115,177.21Z" style="fill:#fff;opacity:0.15"></path><path d="M223,177.21h.81v239h0a.82.82,0,0,1-.81-.82Z" style="opacity:0.2"></path><rect x="111.47" y="187.1" width="99.2" height="18.35" style="fill:#407BFF"></rect><rect x="204.9" y="188.68" width="3.61" height="15.2" style="fill:#fff;opacity:0.30000000000000004"></rect><rect x="198.7" y="188.68" width="3.61" height="15.2" style="fill:#fff;opacity:0.30000000000000004"></rect><rect x="192.51" y="188.68" width="3.61" height="15.2" style="fill:#fff;opacity:0.30000000000000004"></rect><rect x="186.31" y="188.68" width="3.61" height="15.2" style="fill:#fff;opacity:0.30000000000000004"></rect><rect x="180.11" y="188.68" width="3.61" height="15.2" style="fill:#fff;opacity:0.30000000000000004"></rect><rect x="173.91" y="188.68" width="3.61" height="15.2" style="fill:#fff;opacity:0.30000000000000004"></rect><rect x="167.71" y="188.68" width="3.61" height="15.2" style="fill:#fff;opacity:0.30000000000000004"></rect><rect x="161.51" y="188.68" width="3.61" height="15.2" style="fill:#fff;opacity:0.30000000000000004"></rect><rect x="155.32" y="188.68" width="3.61" height="15.2" style="fill:#fff;opacity:0.30000000000000004"></rect><rect x="149.12" y="188.68" width="3.61" height="15.2" style="fill:#fff;opacity:0.30000000000000004"></rect><rect x="142.92" y="188.68" width="3.61" height="15.2" style="fill:#fff;opacity:0.30000000000000004"></rect><rect x="136.72" y="188.68" width="3.61" height="15.2" style="fill:#fff;opacity:0.30000000000000004"></rect><rect x="130.52" y="188.68" width="3.61" height="15.2" style="fill:#fff;opacity:0.30000000000000004"></rect><rect x="124.32" y="188.68" width="3.61" height="15.2" style="fill:#fff;opacity:0.30000000000000004"></rect><rect x="111.47" y="212.63" width="99.2" height="18.35" style="fill:#407BFF"></rect><rect x="111.47" y="238.15" width="99.2" height="18.35" style="fill:#407BFF"></rect><rect x="111.47" y="263.67" width="99.2" height="18.35" style="fill:#407BFF"></rect><rect x="111.47" y="289.19" width="99.2" height="18.35" style="fill:#407BFF"></rect><rect x="111.47" y="314.71" width="99.2" height="18.35" style="fill:#407BFF"></rect><rect x="111.47" y="340.24" width="99.2" height="18.35" style="fill:#407BFF"></rect><rect x="111.47" y="365.76" width="99.2" height="18.35" style="fill:#407BFF"></rect><rect x="210.67" y="187.1" width="2.46" height="18.35" transform="translate(423.8 392.55) rotate(180)" style="opacity:0.2"></rect><rect x="210.67" y="212.63" width="2.46" height="18.35" transform="translate(423.8 443.6) rotate(180)" style="opacity:0.2"></rect><rect x="210.67" y="238.15" width="2.46" height="18.35" transform="translate(423.8 494.64) rotate(180)" style="opacity:0.2"></rect><rect x="210.67" y="263.67" width="2.46" height="18.35" transform="translate(423.8 545.69) rotate(180)" style="opacity:0.2"></rect><rect x="210.67" y="289.19" width="2.46" height="18.35" transform="translate(423.8 596.73) rotate(180)" style="opacity:0.2"></rect><rect x="210.67" y="314.71" width="2.46" height="18.35" transform="translate(423.8 647.78) rotate(180)" style="opacity:0.2"></rect><rect x="210.67" y="340.24" width="2.46" height="18.35" transform="translate(423.8 698.82) rotate(180)" style="opacity:0.2"></rect><rect x="210.67" y="365.76" width="2.46" height="18.35" transform="translate(423.8 749.87) rotate(180)" style="opacity:0.2"></rect><path d="M116.76,192.9a2.32,2.32,0,1,0,2.32-2.32A2.32,2.32,0,0,0,116.76,192.9Z" style="fill:#fff"></path><path d="M116.76,199.66a2.32,2.32,0,1,0,2.32-2.32A2.32,2.32,0,0,0,116.76,199.66Z" style="fill:#263238;opacity:0.30000000000000004"></path><rect x="204.9" y="214.2" width="3.61" height="15.2" style="fill:#fff;opacity:0.30000000000000004"></rect><rect x="198.7" y="214.2" width="3.61" height="15.2" style="fill:#fff;opacity:0.30000000000000004"></rect><rect x="192.51" y="214.2" width="3.61" height="15.2" style="fill:#fff;opacity:0.30000000000000004"></rect><rect x="186.31" y="214.2" width="3.61" height="15.2" style="fill:#fff;opacity:0.30000000000000004"></rect><rect x="180.11" y="214.2" width="3.61" height="15.2" style="fill:#fff;opacity:0.30000000000000004"></rect><rect x="173.91" y="214.2" width="3.61" height="15.2" style="fill:#fff;opacity:0.30000000000000004"></rect><rect x="167.71" y="214.2" width="3.61" height="15.2" style="fill:#fff;opacity:0.30000000000000004"></rect><rect x="161.51" y="214.2" width="3.61" height="15.2" style="fill:#fff;opacity:0.30000000000000004"></rect><rect x="155.32" y="214.2" width="3.61" height="15.2" style="fill:#fff;opacity:0.30000000000000004"></rect><rect x="149.12" y="214.2" width="3.61" height="15.2" style="fill:#fff;opacity:0.30000000000000004"></rect><rect x="142.92" y="214.2" width="3.61" height="15.2" style="fill:#fff;opacity:0.30000000000000004"></rect><rect x="136.72" y="214.2" width="3.61" height="15.2" style="fill:#fff;opacity:0.30000000000000004"></rect><rect x="130.52" y="214.2" width="3.61" height="15.2" style="fill:#fff;opacity:0.30000000000000004"></rect><rect x="124.32" y="214.2" width="3.61" height="15.2" style="fill:#fff;opacity:0.30000000000000004"></rect><path d="M116.76,218.42a2.32,2.32,0,1,0,2.32-2.32A2.32,2.32,0,0,0,116.76,218.42Z" style="fill:#fff"></path><path d="M116.76,225.18a2.32,2.32,0,1,0,2.32-2.32A2.32,2.32,0,0,0,116.76,225.18Z" style="fill:#263238;opacity:0.30000000000000004"></path><rect x="204.9" y="239.72" width="3.61" height="15.2" style="fill:#fff;opacity:0.30000000000000004"></rect><rect x="198.7" y="239.72" width="3.61" height="15.2" style="fill:#fff;opacity:0.30000000000000004"></rect><rect x="192.51" y="239.72" width="3.61" height="15.2" style="fill:#fff;opacity:0.30000000000000004"></rect><rect x="186.31" y="239.72" width="3.61" height="15.2" style="fill:#fff;opacity:0.30000000000000004"></rect><rect x="180.11" y="239.72" width="3.61" height="15.2" style="fill:#fff;opacity:0.30000000000000004"></rect><rect x="173.91" y="239.72" width="3.61" height="15.2" style="fill:#fff;opacity:0.30000000000000004"></rect><rect x="167.71" y="239.72" width="3.61" height="15.2" style="fill:#fff;opacity:0.30000000000000004"></rect><rect x="161.51" y="239.72" width="3.61" height="15.2" style="fill:#fff;opacity:0.30000000000000004"></rect><rect x="155.32" y="239.72" width="3.61" height="15.2" style="fill:#fff;opacity:0.30000000000000004"></rect><rect x="149.12" y="239.72" width="3.61" height="15.2" style="fill:#fff;opacity:0.30000000000000004"></rect><rect x="142.92" y="239.72" width="3.61" height="15.2" style="fill:#fff;opacity:0.30000000000000004"></rect><rect x="136.72" y="239.72" width="3.61" height="15.2" style="fill:#fff;opacity:0.30000000000000004"></rect><rect x="130.52" y="239.72" width="3.61" height="15.2" style="fill:#fff;opacity:0.30000000000000004"></rect><rect x="124.32" y="239.72" width="3.61" height="15.2" style="fill:#fff;opacity:0.30000000000000004"></rect><path d="M116.76,243.94a2.32,2.32,0,1,0,2.32-2.32A2.32,2.32,0,0,0,116.76,243.94Z" style="fill:#fff"></path><path d="M116.76,250.7a2.32,2.32,0,1,0,2.32-2.32A2.32,2.32,0,0,0,116.76,250.7Z" style="fill:#263238;opacity:0.30000000000000004"></path><rect x="204.9" y="265.24" width="3.61" height="15.2" style="fill:#fff;opacity:0.30000000000000004"></rect><rect x="198.7" y="265.24" width="3.61" height="15.2" style="fill:#fff;opacity:0.30000000000000004"></rect><rect x="192.51" y="265.24" width="3.61" height="15.2" style="fill:#fff;opacity:0.30000000000000004"></rect><rect x="186.31" y="265.24" width="3.61" height="15.2" style="fill:#fff;opacity:0.30000000000000004"></rect><rect x="180.11" y="265.24" width="3.61" height="15.2" style="fill:#fff;opacity:0.30000000000000004"></rect><rect x="173.91" y="265.24" width="3.61" height="15.2" style="fill:#fff;opacity:0.30000000000000004"></rect><rect x="167.71" y="265.24" width="3.61" height="15.2" style="fill:#fff;opacity:0.30000000000000004"></rect><rect x="161.51" y="265.24" width="3.61" height="15.2" style="fill:#fff;opacity:0.30000000000000004"></rect><rect x="155.32" y="265.24" width="3.61" height="15.2" style="fill:#fff;opacity:0.30000000000000004"></rect><rect x="149.12" y="265.24" width="3.61" height="15.2" style="fill:#fff;opacity:0.30000000000000004"></rect><rect x="142.92" y="265.24" width="3.61" height="15.2" style="fill:#fff;opacity:0.30000000000000004"></rect><rect x="136.72" y="265.24" width="3.61" height="15.2" style="fill:#fff;opacity:0.30000000000000004"></rect><rect x="130.52" y="265.24" width="3.61" height="15.2" style="fill:#fff;opacity:0.30000000000000004"></rect><rect x="124.32" y="265.24" width="3.61" height="15.2" style="fill:#fff;opacity:0.30000000000000004"></rect><path d="M116.76,269.46a2.32,2.32,0,1,0,2.32-2.32A2.32,2.32,0,0,0,116.76,269.46Z" style="fill:#fff"></path><path d="M116.76,276.23a2.32,2.32,0,1,0,2.32-2.32A2.32,2.32,0,0,0,116.76,276.23Z" style="fill:#263238;opacity:0.30000000000000004"></path><rect x="204.9" y="290.77" width="3.61" height="15.2" style="fill:#fff;opacity:0.30000000000000004"></rect><rect x="198.7" y="290.77" width="3.61" height="15.2" style="fill:#fff;opacity:0.30000000000000004"></rect><rect x="192.51" y="290.77" width="3.61" height="15.2" style="fill:#fff;opacity:0.30000000000000004"></rect><rect x="186.31" y="290.77" width="3.61" height="15.2" style="fill:#fff;opacity:0.30000000000000004"></rect><rect x="180.11" y="290.77" width="3.61" height="15.2" style="fill:#fff;opacity:0.30000000000000004"></rect><rect x="173.91" y="290.77" width="3.61" height="15.2" style="fill:#fff;opacity:0.30000000000000004"></rect><rect x="167.71" y="290.77" width="3.61" height="15.2" style="fill:#fff;opacity:0.30000000000000004"></rect><rect x="161.51" y="290.77" width="3.61" height="15.2" style="fill:#fff;opacity:0.30000000000000004"></rect><rect x="155.32" y="290.77" width="3.61" height="15.2" style="fill:#fff;opacity:0.30000000000000004"></rect><rect x="149.12" y="290.77" width="3.61" height="15.2" style="fill:#fff;opacity:0.30000000000000004"></rect><rect x="142.92" y="290.77" width="3.61" height="15.2" style="fill:#fff;opacity:0.30000000000000004"></rect><rect x="136.72" y="290.77" width="3.61" height="15.2" style="fill:#fff;opacity:0.30000000000000004"></rect><rect x="130.52" y="290.77" width="3.61" height="15.2" style="fill:#fff;opacity:0.30000000000000004"></rect><rect x="124.32" y="290.77" width="3.61" height="15.2" style="fill:#fff;opacity:0.30000000000000004"></rect><path d="M116.76,295a2.32,2.32,0,1,0,2.32-2.33A2.32,2.32,0,0,0,116.76,295Z" style="fill:#fff"></path><path d="M116.76,301.75a2.32,2.32,0,1,0,2.32-2.32A2.32,2.32,0,0,0,116.76,301.75Z" style="fill:#263238;opacity:0.30000000000000004"></path><rect x="204.9" y="316.29" width="3.61" height="15.2" style="fill:#fff;opacity:0.30000000000000004"></rect><rect x="198.7" y="316.29" width="3.61" height="15.2" style="fill:#fff;opacity:0.30000000000000004"></rect><rect x="192.51" y="316.29" width="3.61" height="15.2" style="fill:#fff;opacity:0.30000000000000004"></rect><rect x="186.31" y="316.29" width="3.61" height="15.2" style="fill:#fff;opacity:0.30000000000000004"></rect><rect x="180.11" y="316.29" width="3.61" height="15.2" style="fill:#fff;opacity:0.30000000000000004"></rect><rect x="173.91" y="316.29" width="3.61" height="15.2" style="fill:#fff;opacity:0.30000000000000004"></rect><rect x="167.71" y="316.29" width="3.61" height="15.2" style="fill:#fff;opacity:0.30000000000000004"></rect><rect x="161.51" y="316.29" width="3.61" height="15.2" style="fill:#fff;opacity:0.30000000000000004"></rect><rect x="155.32" y="316.29" width="3.61" height="15.2" style="fill:#fff;opacity:0.30000000000000004"></rect><rect x="149.12" y="316.29" width="3.61" height="15.2" style="fill:#fff;opacity:0.30000000000000004"></rect><rect x="142.92" y="316.29" width="3.61" height="15.2" style="fill:#fff;opacity:0.30000000000000004"></rect><rect x="136.72" y="316.29" width="3.61" height="15.2" style="fill:#fff;opacity:0.30000000000000004"></rect><rect x="130.52" y="316.29" width="3.61" height="15.2" style="fill:#fff;opacity:0.30000000000000004"></rect><rect x="124.32" y="316.29" width="3.61" height="15.2" style="fill:#fff;opacity:0.30000000000000004"></rect><path d="M116.76,320.51a2.32,2.32,0,1,0,2.32-2.32A2.32,2.32,0,0,0,116.76,320.51Z" style="fill:#fff"></path><path d="M116.76,327.27a2.32,2.32,0,1,0,2.32-2.32A2.32,2.32,0,0,0,116.76,327.27Z" style="fill:#263238;opacity:0.30000000000000004"></path><rect x="204.9" y="341.81" width="3.61" height="15.2" style="fill:#fff;opacity:0.30000000000000004"></rect><rect x="198.7" y="341.81" width="3.61" height="15.2" style="fill:#fff;opacity:0.30000000000000004"></rect><rect x="192.51" y="341.81" width="3.61" height="15.2" style="fill:#fff;opacity:0.30000000000000004"></rect><rect x="186.31" y="341.81" width="3.61" height="15.2" style="fill:#fff;opacity:0.30000000000000004"></rect><rect x="180.11" y="341.81" width="3.61" height="15.2" style="fill:#fff;opacity:0.30000000000000004"></rect><rect x="173.91" y="341.81" width="3.61" height="15.2" style="fill:#fff;opacity:0.30000000000000004"></rect><rect x="167.71" y="341.81" width="3.61" height="15.2" style="fill:#fff;opacity:0.30000000000000004"></rect><rect x="161.51" y="341.81" width="3.61" height="15.2" style="fill:#fff;opacity:0.30000000000000004"></rect><rect x="155.32" y="341.81" width="3.61" height="15.2" style="fill:#fff;opacity:0.30000000000000004"></rect><rect x="149.12" y="341.81" width="3.61" height="15.2" style="fill:#fff;opacity:0.30000000000000004"></rect><rect x="142.92" y="341.81" width="3.61" height="15.2" style="fill:#fff;opacity:0.30000000000000004"></rect><rect x="136.72" y="341.81" width="3.61" height="15.2" style="fill:#fff;opacity:0.30000000000000004"></rect><rect x="130.52" y="341.81" width="3.61" height="15.2" style="fill:#fff;opacity:0.30000000000000004"></rect><rect x="124.32" y="341.81" width="3.61" height="15.2" style="fill:#fff;opacity:0.30000000000000004"></rect><path d="M116.76,346a2.32,2.32,0,1,0,2.32-2.32A2.32,2.32,0,0,0,116.76,346Z" style="fill:#fff"></path><path d="M116.76,352.79a2.32,2.32,0,1,0,2.32-2.32A2.32,2.32,0,0,0,116.76,352.79Z" style="fill:#263238;opacity:0.30000000000000004"></path><rect x="204.9" y="367.33" width="3.61" height="15.2" style="fill:#fff;opacity:0.30000000000000004"></rect><rect x="198.7" y="367.33" width="3.61" height="15.2" style="fill:#fff;opacity:0.30000000000000004"></rect><rect x="192.51" y="367.33" width="3.61" height="15.2" style="fill:#fff;opacity:0.30000000000000004"></rect><rect x="186.31" y="367.33" width="3.61" height="15.2" style="fill:#fff;opacity:0.30000000000000004"></rect><rect x="180.11" y="367.33" width="3.61" height="15.2" style="fill:#fff;opacity:0.30000000000000004"></rect><rect x="173.91" y="367.33" width="3.61" height="15.2" style="fill:#fff;opacity:0.30000000000000004"></rect><rect x="167.71" y="367.33" width="3.61" height="15.2" style="fill:#fff;opacity:0.30000000000000004"></rect><rect x="161.51" y="367.33" width="3.61" height="15.2" style="fill:#fff;opacity:0.30000000000000004"></rect><rect x="155.32" y="367.33" width="3.61" height="15.2" style="fill:#fff;opacity:0.30000000000000004"></rect><rect x="149.12" y="367.33" width="3.61" height="15.2" style="fill:#fff;opacity:0.30000000000000004"></rect><rect x="142.92" y="367.33" width="3.61" height="15.2" style="fill:#fff;opacity:0.30000000000000004"></rect><rect x="136.72" y="367.33" width="3.61" height="15.2" style="fill:#fff;opacity:0.30000000000000004"></rect><rect x="130.52" y="367.33" width="3.61" height="15.2" style="fill:#fff;opacity:0.30000000000000004"></rect><rect x="124.32" y="367.33" width="3.61" height="15.2" style="fill:#fff;opacity:0.30000000000000004"></rect><path d="M116.76,371.55a2.32,2.32,0,1,0,2.32-2.32A2.32,2.32,0,0,0,116.76,371.55Z" style="fill:#fff"></path><path d="M116.76,378.32a2.32,2.32,0,1,0,2.32-2.32A2.32,2.32,0,0,0,116.76,378.32Z" style="fill:#263238;opacity:0.30000000000000004"></path><path d="M189.27,116.4v6.29l-3.71.93a14.45,14.45,0,0,1-1.28,3.06l2,3.29-4.45,4.45-3.28-2a14.32,14.32,0,0,1-3.07,1.28l-.92,3.71h-6.3l-.92-3.71a14.53,14.53,0,0,1-3.07-1.28l-3.28,2L156.52,130l2-3.28a14.75,14.75,0,0,1-1.28-3.07l-3.71-.93V116.4l3.71-.92a14.53,14.53,0,0,1,1.28-3.07l-2-3.28,4.45-4.45,3.29,2a14.24,14.24,0,0,1,3.06-1.28l.92-3.71h6.3l.92,3.71a14,14,0,0,1,3.06,1.28l3.29-2,4.45,4.45-2,3.28a14.53,14.53,0,0,1,1.28,3.07Zm-17.88-2.88a6,6,0,1,0,6,6A6,6,0,0,0,171.39,113.52Z" style="fill:#407BFF"></path><path d="M207.13,132.53l-1.34,3.22-2.09-.32a8.05,8.05,0,0,1-1.31,1.3l.32,2.1-3.22,1.34-1.26-1.71a8.09,8.09,0,0,1-1.84,0l-1.26,1.71-3.22-1.34.31-2.09a8.47,8.47,0,0,1-1.3-1.31l-2.1.32-1.33-3.22,1.71-1.26a8.09,8.09,0,0,1,0-1.84l-1.71-1.26,1.33-3.22,2.1.31a8.41,8.41,0,0,1,1.3-1.3l-.31-2.1,3.22-1.33,1.26,1.71a7.55,7.55,0,0,1,1.84,0l1.26-1.7,3.22,1.33-.32,2.1a7.61,7.61,0,0,1,1.3,1.3l2.1-.31,1.34,3.22-1.71,1.26a8.09,8.09,0,0,1,0,1.84Z" style="fill:#407BFF"></path><path d="M207.13,132.53l-1.34,3.22-2.09-.32a8.05,8.05,0,0,1-1.31,1.3l.32,2.1-3.22,1.34-1.26-1.71a8.09,8.09,0,0,1-1.84,0l-1.26,1.71-3.22-1.34.31-2.09a8.47,8.47,0,0,1-1.3-1.31l-2.1.32-1.33-3.22,1.71-1.26a8.09,8.09,0,0,1,0-1.84l-1.71-1.26,1.33-3.22,2.1.31a8.41,8.41,0,0,1,1.3-1.3l-.31-2.1,3.22-1.33,1.26,1.71a7.55,7.55,0,0,1,1.84,0l1.26-1.7,3.22,1.33-.32,2.1a7.61,7.61,0,0,1,1.3,1.3l2.1-.31,1.34,3.22-1.71,1.26a8.09,8.09,0,0,1,0,1.84Z" style="fill:#fff;opacity:0.30000000000000004"></path><path d="M218.52,158.5H141.7a3.9,3.9,0,0,1-3.88-3.88h0a3.89,3.89,0,0,1,3.88-3.88h76.82a3.89,3.89,0,0,1,3.88,3.88h0A3.9,3.9,0,0,1,218.52,158.5Z" style="fill:#407BFF"></path><path d="M141.7,157.58a3,3,0,1,1,0-5.92h27.15a3,3,0,0,1,0,5.92Z" style="fill:#fff"></path><polygon points="175.16 163.26 180.11 168.21 185.06 163.26 175.16 163.26" style="fill:#407BFF"></polygon></g><g id="freepik--Character--inject-130"><path d="M248.51,415.71h-2.14a4.74,4.74,0,0,1-4.74-4.73V396.26a.9.9,0,0,0-.9-.9h-4.15v-1h4.15a1.9,1.9,0,0,1,1.91,1.91V411a3.73,3.73,0,0,0,3.73,3.72h2.14a3.73,3.73,0,0,0,3.72-3.72V235.48a1.91,1.91,0,0,1,1.91-1.91h10.94v1H254.14a.9.9,0,0,0-.9.9V411A4.73,4.73,0,0,1,248.51,415.71Z" style="fill:#407BFF"></path><rect x="234.83" y="235.14" width="104.94" height="3.01" style="fill:#407BFF"></rect><rect x="234.83" y="235.14" width="34.42" height="3.01" style="opacity:0.2"></rect><rect x="286.32" y="238.15" width="7.42" height="177.06" style="fill:#407BFF"></rect><polygon points="293.74 238.15 288.75 238.15 286.32 238.15 286.32 243.13 286.32 415.21 288.75 415.21 288.75 242.63 293.74 241.62 293.74 238.15" style="opacity:0.2"></polygon><path d="M316.22,191.66H258.65a3.19,3.19,0,0,0-3.22,3.69l4.34,34.08a4.33,4.33,0,0,0,4.16,3.69h57.58a3.19,3.19,0,0,0,3.22-3.69l-4.35-34.08A4.33,4.33,0,0,0,316.22,191.66Z" style="fill:#407BFF"></path><path d="M334.32,233H262.21a1.85,1.85,0,0,0-1.86,2.14h76.38A2.52,2.52,0,0,0,334.32,233Z" style="fill:#407BFF"></path><path d="M279.32,233H262.21a1.85,1.85,0,0,0-1.86,2.14h21.38A2.52,2.52,0,0,0,279.32,233Z" style="opacity:0.2"></path><path d="M264.27,231.09a2.3,2.3,0,0,1-2.15-1.92l-4.34-34.08a1.27,1.27,0,0,1,.27-1,1.19,1.19,0,0,1,.94-.39h57.57a2.3,2.3,0,0,1,2.15,1.92l4.34,34.08a1.22,1.22,0,0,1-.27,1,1.17,1.17,0,0,1-.94.39Z" style="fill:#fff;opacity:0.9"></path><g style="opacity:0.2"><path d="M294.92,207.93l.65,3.79-2.26.56a7.3,7.3,0,0,1-.5,1.86l1.59,2L292,218.8l-2.28-1.18a8.15,8.15,0,0,1-1.81.77l-.2,2.24-4,0-1-2.24a10.93,10.93,0,0,1-2.07-.76l-1.88,1.2-3.27-2.67.91-2a10.52,10.52,0,0,1-1.12-1.84l-2.45-.55-.64-3.79,2.26-.56a7.11,7.11,0,0,1,.49-1.85l-1.59-2,2.36-2.69,2.28,1.19a7.73,7.73,0,0,1,1.81-.78l.21-2.24h4l1,2.23a11.48,11.48,0,0,1,2.08.76l1.87-1.2,3.28,2.67-.92,2a9.94,9.94,0,0,1,1.12,1.84Zm-11.62-1.69a3.07,3.07,0,0,0-3.19,3.64,4.59,4.59,0,0,0,4.43,3.62,3.08,3.08,0,0,0,3.2-3.65A4.58,4.58,0,0,0,283.3,206.24Z" style="fill:#407BFF"></path></g><path d="M307.88,217.6l-.52,2-1.36-.19a3.7,3.7,0,0,1-.69.79l.42,1.26-1.9.81-1-1a5,5,0,0,1-1.16,0l-.63,1-2.17-.79,0-1.27a6,6,0,0,1-.95-.78l-1.3.19-1.17-1.93.95-.77a4.61,4.61,0,0,1-.19-1.11L295,215l.51-1.94,1.36.18a4.28,4.28,0,0,1,.69-.78l-.41-1.27,1.9-.81,1,1a5.08,5.08,0,0,1,1.17,0l.62-1,2.18.8v1.26a6.67,6.67,0,0,1,1,.78l1.3-.19,1.17,1.93-.95.77a5.38,5.38,0,0,1,.19,1.11Z" style="fill:#407BFF;opacity:0.2"></path><path d="M355.76,147.34c-.76,5.29-1.29,14.93,2.55,18.24a26.68,26.68,0,0,1-12.08,11.3c-7.23-4-4.2-10.47-4.2-10.47,5.77-1.69,5.4-6,4.18-10Z" style="fill:#ffc3bd"></path><path d="M358.23,162.71a3,3,0,0,0-.68.12,2.76,2.76,0,0,0-4.45-.59,2.76,2.76,0,0,0-4.1.38,2.75,2.75,0,0,0-4.29.84,2.76,2.76,0,0,0-3.93,2.61,2.76,2.76,0,0,0,5.24,1.14,2.63,2.63,0,0,0,1.25.26,2.78,2.78,0,0,0,2.12-1.12,2.75,2.75,0,0,0,3.84-.17,2.8,2.8,0,0,0,2,.74,3,3,0,0,0,.68-.12,2.77,2.77,0,1,0,2.34-4.09Z" style="fill:#fff"></path><path d="M358.23,162.71a3,3,0,0,0-.68.12,2.76,2.76,0,0,0-4.45-.59,2.76,2.76,0,0,0-4.1.38,2.75,2.75,0,0,0-4.29.84,2.76,2.76,0,0,0-3.93,2.61,2.76,2.76,0,0,0,5.24,1.14,2.63,2.63,0,0,0,1.25.26,2.78,2.78,0,0,0,2.12-1.12,2.75,2.75,0,0,0,3.84-.17,2.8,2.8,0,0,0,2,.74,3,3,0,0,0,.68-.12,2.77,2.77,0,1,0,2.34-4.09Z" style="fill:#407BFF;opacity:0.5"></path><path d="M333.11,143.86c.21.68,0,1.34-.44,1.47s-1-.31-1.17-1,0-1.34.44-1.47S332.91,143.17,333.11,143.86Z" style="fill:#263238"></path><path d="M332.15,142.84h-1.78S331.59,143.88,332.15,142.84Z" style="fill:#263238"></path><path d="M330.89,140.07a.41.41,0,0,1-.3-.09.41.41,0,0,1-.08-.58,4.12,4.12,0,0,1,3.41-1.72.42.42,0,0,1,.39.45.43.43,0,0,1-.45.39,3.3,3.3,0,0,0-2.69,1.38A.42.42,0,0,1,330.89,140.07Z" style="fill:#263238"></path><path d="M334.09,145.94a19,19,0,0,1-1.15,5.08,3,3,0,0,0,2.57-.26Z" style="fill:#ed847e"></path><path d="M355.36,134.23c2,8.55,3,12.13,0,17.69-4.47,8.37-15.4,8.91-19.87,1.12-4-7-6.57-19.81.66-25.58A12,12,0,0,1,355.36,134.23Z" style="fill:#ffc3bd"></path><path d="M338.81,142.39c.47-3.25-4,.81-5.11-4.14-.67-2.87-4.09-2.32-3.26-6.83s4.46-4.15,4.88-5.88c.71-2.9,2.65-4.35,5.63-5.06,4.71-1.12,5.67,3.2,9.37,2.13,3.46-1,8.37-.24,10.13,3.35s-1,7.65.83,9.32a9.47,9.47,0,0,1,.5,13.43c-3,3.16,1.53,5.25-1.84,7s-7.54,1.63-9.18-2.82C349.63,149.82,337.34,152.71,338.81,142.39Z" style="fill:#263238"></path><path d="M340.19,142.5a6.4,6.4,0,0,1-.53,4.86c-1.1,2-3.24,1.37-4.26-.49-.93-1.68-1.47-4.73.27-6.06A2.88,2.88,0,0,1,340.19,142.5Z" style="fill:#ffc3bd"></path><path d="M366.12,178c-1.55,6.07-3.38,11.9-5.43,17.74-1,2.92-2.1,5.82-3.28,8.7-.59,1.43-1.18,2.87-1.81,4.3l-1,2.13-1,2.19-.52,1.09-.78,1.31a24.43,24.43,0,0,1-1.67,2.23,29.59,29.59,0,0,1-3.8,3.65,45.8,45.8,0,0,1-8.38,5.21,75.77,75.77,0,0,1-18,5.93l-1.14-4.33c2.7-1,5.48-2.21,8.12-3.47a70.69,70.69,0,0,0,7.69-4.15c4.85-3,9.36-6.6,11-11l.81-2,.8-2.07c.54-1.38,1.05-2.77,1.55-4.17,1-2.8,2-5.62,2.9-8.46,1.82-5.68,3.56-11.48,5.15-17.15Z" style="fill:#ffc3bd"></path><path d="M321.44,227.52l-7.73-1.29,1.18,7.1s6.85.44,9.06-2.5Z" style="fill:#ffc3bd"></path><polygon points="307.88 229.49 307.13 233 314.89 233.33 313.71 226.23 307.88 229.49" style="fill:#ffc3bd"></polygon><path d="M328.45,172.92c-.14,6.4,1.38,21,7.7,48.33l33.42-2.09c-1.37-12.72-1.84-20.11,1.56-42.28a10.51,10.51,0,0,0-9.77-12.11l-.63,0a113.56,113.56,0,0,0-16.3,0c-3.51.32-7.26.89-10.12,1.37A7.07,7.07,0,0,0,328.45,172.92Z" style="fill:#407BFF"></path><path d="M357.43,157.49c3.86,6.78-16.5,14.79-2.93,18.09s1,5.66,3.79,15c2.43,8.09,13-2.64,9.48-12.21-4-11,4.48-11-5.57-21C358.36,153.48,357.43,157.49,357.43,157.49Z" style="fill:#263238"></path><path d="M361.45,158l-2.62.22a3.8,3.8,0,0,1-3.72-2.18h0a1.93,1.93,0,0,1,1.88-2.65l2.62-.22a3.8,3.8,0,0,1,3.72,2.18h0A1.93,1.93,0,0,1,361.45,158Z" style="fill:#407BFF"></path><path d="M335.47,175.41l-6.12,10c.47,3.71,1.15,8.15,2.1,13.39l4.38-2.6C338,180.42,335.47,175.41,335.47,175.41Z" style="opacity:0.2"></path><path d="M336.56,178c-1.52,5.94-3.3,11.65-5.3,17.38-1,2.85-2,5.71-3.19,8.52-.56,1.41-1.16,2.81-1.75,4.22s-1.22,2.76-1.93,4.21l-.51,1.07a10.22,10.22,0,0,1-.58,1.13c-.25.42-.51.88-.77,1.25l-.8,1.11a26.4,26.4,0,0,1-3.62,3.76,39.74,39.74,0,0,1-8.2,5.32,66.82,66.82,0,0,1-17.73,5.68l-1.05-4.36c2.63-.95,5.37-2.08,7.95-3.3a63.54,63.54,0,0,0,7.47-4,36.66,36.66,0,0,0,6.36-4.95,19.85,19.85,0,0,0,2.36-2.84l.46-.73c.15-.25.24-.45.36-.68a6.82,6.82,0,0,0,.39-.87l.39-1c2.16-5.26,4.09-10.85,5.91-16.39s3.48-11.23,5-16.79Z" style="fill:#ffc3bd"></path><path d="M337.61,173.32a21.29,21.29,0,0,0-5-6.67c-5.94,2.68-8,5.61-11.43,22.51,4.94,4.31,13.13,4.31,13.13,4.31l4.41-11.36S339.12,176.93,337.61,173.32Z" style="fill:#407BFF"></path><path d="M291.88,227.52l-7.63-1,2.33,6.38s5.61.87,7.82-2.07Z" style="fill:#ffc3bd"></path><polygon points="280.25 229.49 278.08 233 286.58 232.9 284.25 226.52 280.25 229.49" style="fill:#ffc3bd"></polygon><path d="M337.24,221.18S333,283,332.31,312.8a25.51,25.51,0,0,0,2.05,10.59c13.29,31.26,40.12,65.74,40.12,65.74l5.37-5.44s-17.8-39.9-30-69.85c7.25-29.56,11.8-94.16,11.8-94.16Z" style="fill:#ffc3bd"></path><path d="M372.77,367.67c-4.4-10.07-10.29-23.64-15.94-37l-.1,32.61a3.29,3.29,0,0,0,.52,1.49c7.77,11.85,14.53,20.86,16.59,23.56Z" style="opacity:0.2"></path><path d="M343.11,220.91s5.81,63.71,10.71,90.22c5.15,27.84,9,94.18,9.05,96.21H369s8.38-74.57.56-99.54c-1.29-30.48,0-88.64,0-88.64Z" style="fill:#ffc3bd"></path><path d="M372.46,387.6l6.5-5.74a.72.72,0,0,1,.94,0l5.9,5.17a1.47,1.47,0,0,1-.09,2.16c-2.73,2.33-2.95,2.25-6.34,5.25-2.09,1.84-5.37,4.87-8.25,7.41s-5.39-.1-4.4-1.41c4.43-5.87,4.37-8.31,4.93-11.4A2.52,2.52,0,0,1,372.46,387.6Z" style="fill:#263238"></path><path d="M362.15,406.09h7a.7.7,0,0,1,.7.62l1,8a1.46,1.46,0,0,1-1.46,1.59c-3.51-.06-2.1-.27-6.53-.27-2.72,0-6.7.29-10.46.29s-3.91-3.72-2.34-4.06c7-1.51,8.18-3.59,10.57-5.58A2.42,2.42,0,0,1,362.15,406.09Z" style="fill:#263238"></path><path d="M336.15,221.25l-6.7,92.18,43.43-11.71c-3.78-38.05,10.2-63.57-3.31-82.56Z" style="fill:#263238"></path><path d="M370.2,220.78,336,223.24a.59.59,0,0,1-.62-.54l-.11-1.56a.59.59,0,0,1,.54-.62l33.95-2.44a.57.57,0,0,1,.6.45l.37,1.54A.59.59,0,0,1,370.2,220.78Z" style="fill:#407BFF"></path><path d="M370.2,220.78,336,223.24a.59.59,0,0,1-.62-.54l-.11-1.56a.59.59,0,0,1,.54-.62l33.95-2.44a.57.57,0,0,1,.6.45l.37,1.54A.59.59,0,0,1,370.2,220.78Z" style="fill:#fff;opacity:0.7000000000000001"></path><path d="M365.47,239.66a56.05,56.05,0,0,1-17.42,12.87C359.27,251.11,364,246.52,365.47,239.66Z" style="opacity:0.2"></path></g></svg>