<svg xmlns="http://www.w3.org/2000/svg" viewBox="0 0 500 500"><g id="freepik--Address--inject-357"><rect x="83.21" y="287.28" width="17.3" height="17.3" style="fill:#407BFF"></rect><rect x="83.21" y="287.28" width="17.3" height="17.3" style="fill:#fff;opacity:0.30000000000000004"></rect><path d="M91.72,260.71,69.18,283.25h8.49v21.33h9.77V290.66H96v13.92h9.77V283.25h8.5Z" style="fill:#407BFF"></path><polygon points="212.12 370.44 113.49 316.21 77.59 316.21 77.59 315.21 113.74 315.21 113.86 315.27 212.6 369.56 212.12 370.44" style="fill:#407BFF"></polygon></g><g id="freepik--online-identifier--inject-357"><rect x="378.63" y="71.76" width="43.75" height="43.75" style="fill:#407BFF"></rect><rect x="378.63" y="71.76" width="43.75" height="43.75" style="fill:#fff;opacity:0.30000000000000004"></rect><rect x="382.67" y="75.8" width="35.66" height="35.66" style="fill:#f5f5f5"></rect><path d="M407.79,89.93a9.62,9.62,0,0,1-3.32,7.56,5.72,5.72,0,0,1-7.26,0,9.62,9.62,0,0,1-3.32-7.56c0-4.89.88-8.86,6.95-8.86S407.79,85,407.79,89.93Z" style="fill:#407BFF"></path><path d="M414.48,109v2.5H387.2V109c0-4.75,2.76-7.94,7.68-8.55l.93-.06a1.4,1.4,0,0,0,1.4-1.4V97.49a5.72,5.72,0,0,0,7.26,0V99a1.4,1.4,0,0,0,1.4,1.4l.93.06C411.72,101,414.48,104.22,414.48,109Z" style="fill:#407BFF"></path><polygon points="268.78 97.36 268.29 96.48 302.68 77.41 369.36 77.41 369.36 78.41 302.94 78.41 268.78 97.36" style="fill:#407BFF"></polygon></g><g id="freepik--Income--inject-357"><path d="M414.25,290.76c0,4.85-3.34,9.1-10.2,10.39a24.65,24.65,0,0,1-4.56.4,26.37,26.37,0,0,1-2.67-.13c-4.58-.42-8.91-1.9-11.49-3.9l2.73-6.06a20.29,20.29,0,0,0,8.76,3.42,17.8,17.8,0,0,0,2.72.21,11.3,11.3,0,0,0,4.51-.74,3.17,3.17,0,0,0,2.2-3c0-1.33-.85-2.2-2.2-2.86-1.79-.88-4.48-1.37-7.23-2.05-5.27-1.3-10.79-3.3-10.79-10.05,0-5.08,3.52-9.42,10.79-10.54a24.57,24.57,0,0,1,3.87-.29,27.06,27.06,0,0,1,3.36.21,21.3,21.3,0,0,1,8.71,2.87l-2.48,6.11a20.83,20.83,0,0,0-6.23-2.38,16.8,16.8,0,0,0-3.41-.35,11.66,11.66,0,0,0-3.82.54c-2,.69-2.79,2-2.79,3.43s1.1,2.4,2.79,3.07a69.21,69.21,0,0,0,7.23,1.9C409.13,282.26,414.25,284.34,414.25,290.76Z" style="fill:#407BFF"></path><path d="M404.05,261.65v4.13a27.06,27.06,0,0,0-3.36-.21,24.57,24.57,0,0,0-3.87.29v-4.21Z" style="fill:#407BFF"></path><path d="M404.05,301.15v3.91h-7.23v-3.64a26.37,26.37,0,0,0,2.67.13A24.65,24.65,0,0,0,404.05,301.15Z" style="fill:#407BFF"></path><path d="M404.05,261.65v4.13a27.06,27.06,0,0,0-3.36-.21,24.57,24.57,0,0,0-3.87.29v-4.21Z" style="fill:#fff;opacity:0.30000000000000004"></path><path d="M404.05,301.15v3.91h-7.23v-3.64a26.37,26.37,0,0,0,2.67.13A24.65,24.65,0,0,0,404.05,301.15Z" style="fill:#fff;opacity:0.30000000000000004"></path><polygon points="399.61 257.91 316.9 210.93 281.01 210.93 281.01 209.93 317.17 209.93 317.28 209.99 400.11 257.04 399.61 257.91" style="fill:#407BFF"></polygon></g><g id="freepik--Character--inject-357"><g id="freepik--group--inject-357"><polygon points="253.5 386.95 261.57 388.49 266.16 364.8 255.75 363.56 253.5 386.95" style="fill:#ffc2bc"></polygon><path d="M263.25,387l-10.71-3.33a.9.9,0,0,0-1.07.45l-4.79,8.31a1.54,1.54,0,0,0,.44,2,1.27,1.27,0,0,0,.37.18c3.77,1.2,5.56,1.71,10.26,3.19,2.91.9,11.06,5,15.23,5s5-4.35,3.27-4.76c-7.54-1.85-10.07-7.07-11.69-10A2.32,2.32,0,0,0,263.25,387Z" style="fill:#263238"></path><polygon points="266.16 364.81 263.9 376.44 254.59 375.68 255.75 363.56 266.16 364.81" style="opacity:0.2;isolation:isolate"></polygon><path d="M259.42,181.19c4.09.68,7.25-.86,9.45,2.71.73,1.19,1.71,6.54,2.11,7.95,5,17.56,15.4,76.32,12.43,109.07-2.65,29.18-14.64,69.61-14.64,69.61l-16.16,1.53s6.12-61.93,6.79-86.06c1.15-41.3-16.3-107.53-16.3-107.53Z" style="fill:#263238"></path><polygon points="271.37 373.62 251.16 372.69 251.8 364.54 271.96 366.31 271.37 373.62" style="fill:#407BFF"></polygon><path d="M255.08,200.65l-4.28,11.58c3.19,15.49,8.34,42.7,8.65,70.41C265.42,260.34,258,211.37,255.08,200.65Z" style="opacity:0.2;isolation:isolate"></path><polygon points="222.02 382.63 231.24 384.39 235.55 361.18 225.52 359.61 222.02 382.63" style="fill:#ffc2bc"></polygon><path d="M231.39,383.5l-9.33-5.26a.74.74,0,0,0-1,.23l-5.7,8.1a1.66,1.66,0,0,0,.39,2.22l.16.1c3.27,1.78,4.95,2.46,9,4.79,2.54,1.47,8.88,5.86,12.37,7.82s6.27-2.43,5-3.56c-5.79-5.19-8.56-9.9-9.77-13.1A2.63,2.63,0,0,0,231.39,383.5Z" style="fill:#263238"></path><polygon points="225.46 359.86 235.44 361.77 233.25 373.56 223.65 371.74 225.46 359.86" style="opacity:0.2;isolation:isolate"></polygon><path d="M252.74,177.7s11.51,40.63,2,107.3A392.84,392.84,0,0,1,235,369.56L223.13,364s3.15-52.87,5.62-74.29c5.07-43.87-2.53-80-3.55-98.84a10.59,10.59,0,0,1,9.09-11.21Z" style="fill:#263238"></path><polygon points="237.33 371.23 220.3 367.86 220.67 360.92 239.71 364.54 237.33 371.23" style="fill:#407BFF"></polygon><path d="M235.4,387.7a1.37,1.37,0,0,0,.63-.63.83.83,0,0,0,.06-.78c-.54-1.12-3.9-1.5-4.28-1.55a.18.18,0,0,0-.18.08.2.2,0,0,0,0,.22c.76,1,2.25,2.78,3.42,2.7A1,1,0,0,0,235.4,387.7Zm-3.16-2.47c1.15.16,3.2.59,3.53,1.28a.42.42,0,0,1,0,.39.91.91,0,0,1-.7.53c-.69,0-1.71-.81-2.81-2.24Z" style="fill:#407BFF"></path><path d="M234.73,384.65a2.15,2.15,0,0,0,1.12-.88.82.82,0,0,0-.19-1,1.13,1.13,0,0,0-.89-.37c-1.35.07-3.05,2.29-3.12,2.38a.22.22,0,0,0,0,.19.18.18,0,0,0,.14.14A6.45,6.45,0,0,0,234.73,384.65Zm-.44-1.69a1.48,1.48,0,0,1,.5-.13.74.74,0,0,1,.61.25.46.46,0,0,1,.12.51c-.34.69-2.26,1.21-3.35,1.19A7.08,7.08,0,0,1,234.29,383Z" style="fill:#407BFF"></path><path d="M267.5,390.41a3.41,3.41,0,0,0,2.25.1,1.32,1.32,0,0,0,.82-.9.67.67,0,0,0-.07-.67c-.78-1-5.18-.29-5.69-.21a.18.18,0,0,0-.15.16.2.2,0,0,0,.09.21A14.75,14.75,0,0,0,267.5,390.41Zm2.25-1.47a.79.79,0,0,1,.4.22.3.3,0,0,1,0,.29,1,1,0,0,1-.61.67c-1.07.43-3.12-.53-4.2-1.11a13.14,13.14,0,0,1,4.38,0Z" style="fill:#407BFF"></path><path d="M264.72,389.12h.08c1.3-.16,4.32-1.49,4.48-2.57,0-.23-.06-.56-.56-.78-2-.95-4,2.88-4.15,3.06a.24.24,0,0,0,0,.2A.27.27,0,0,0,264.72,389.12Zm3.72-3,.15.06c.35.16.33.31.31.36-.09.69-2.3,1.86-3.76,2.17.52-.87,1.95-3,3.3-2.59Z" style="fill:#407BFF"></path><path d="M335.2,142.19s.76-5.59,1.44-5.39,5.95-.82,8.32-1.27a4.29,4.29,0,0,1,2.16.17l5.36,1.86a1.35,1.35,0,0,1,.86,1.67l-1,3.2a1.37,1.37,0,0,1-1.12,1l-6.2.83a4.19,4.19,0,0,1-1.54-.08Z" style="fill:#ffc2bc"></path><path d="M332.7,136.6l7.39-2.75s3.8,3.17,2.54,6.52-3.05,3.69-3.05,3.69-3,2.48-7.22,0S332.7,136.6,332.7,136.6Z" style="fill:#407BFF"></path><path d="M267.13,122.77c7.23,2.31,25.72,8.48,34.44,11.85,4,1.56,20.37.56,27.46,1a21,21,0,0,1,5.28,1.63l-1,5.4s-1,2.46-3.23,2.9c-8.32,1.65-28.95,3.29-33.38,2.18-12.87-3.22-34.35-9-35.95-12.28C258.32,130.6,261.57,121,267.13,122.77Z" style="fill:#407BFF"></path><path d="M283.16,144.16l-11.9-3.84a46.64,46.64,0,0,0-.24-4.77C275.71,140.66,283.16,144.16,283.16,144.16Z" style="opacity:0.2"></path><path d="M153.52,152.73s-.76-5.59-1.44-5.39-6-.82-8.32-1.27a4.18,4.18,0,0,0-2.16.17l-5.36,1.86a1.35,1.35,0,0,0-.86,1.67l1,3.2a1.35,1.35,0,0,0,1.12.95l6.21.84a4.15,4.15,0,0,0,1.53-.08Z" style="fill:#ffc2bc"></path><path d="M159.05,145.39l-8.85,0S147,147.8,148.67,151a8.27,8.27,0,0,0,4,4l6.61-1.68C163.65,148.9,159.05,145.39,159.05,145.39Z" style="fill:#407BFF"></path><path d="M229.22,135.32a5.73,5.73,0,0,1-2.12,2.14,38.48,38.48,0,0,1-3.83,2.33h0c-7.28,4-19.6,9.06-28.07,12.42-4.24,1.68-24.91,2.76-33.37,2.22-2.25-.14-3.58-2.45-3.58-2.45l-1.73-5.21a20.87,20.87,0,0,1,5-2.31c7-1.38,23.3-2.53,27.08-4.6,8.21-4.49,25.73-13,32.59-16.27C226.48,121.11,231,130.19,229.22,135.32Z" style="fill:#407BFF"></path><path d="M272,184.85a5,5,0,0,1-.78,2.8l-.41.61-.31.49-.05,0-46.22.3a1.89,1.89,0,0,1-.27-.2c-3.26-2.51-3-7.05-1.35-10.81,1.42-3.18,1.83-9.26,1.76-16.38s-.64-15.33-1.16-22.77c-.48-6.84-.36-15.79-.36-15.79a0,0,0,0,1,0-.07,113.66,113.66,0,0,1,16.15-2,122.23,122.23,0,0,1,17.33.17c5.4.64,5.48.37,10.78,1.55,0,0,0,0,0,0,.19.42,3,4.63,3.85,12.75a46.64,46.64,0,0,1,.24,4.77c0,.65,0,1.32,0,2-.14,3.64-.2,12.62-.63,31.57a19.17,19.17,0,0,0,.35,6A18.54,18.54,0,0,1,272,184.85Z" style="fill:#407BFF"></path><path d="M260.1,121.62,252,136.15s-16.62-14.83-16.92-14.83l3.93-.23,3.6,3,8.58,7.07,5.15-9.86Z" style="opacity:0.2"></path><path d="M224.14,154.29c-.07-2.46-.59-10.69-.88-14.49h0a38.48,38.48,0,0,0,3.83-2.33C227.9,140.14,224.2,156.75,224.14,154.29Z" style="opacity:0.2"></path><path d="M256.36,121.26l-5.15,9.86-8.58-7.07a9,9,0,0,0,13.73-2.79Z" style="fill:#263238"></path><path d="M256.36,121.26a9,9,0,0,1-13.73,2.79l-3.6-3c3.94-3.69,2.95-13.91,1.91-19.51l10.57,5.77C252.1,113.53,250.19,119.7,256.36,121.26Z" style="fill:#ffc2bc"></path><path d="M243.9,111.09s2.12,8.6,8.84,7.7c0,0-.37.2-1-3.79a32.19,32.19,0,0,1-.22-7.65S244.35,107.55,243.9,111.09Z" style="opacity:0.2"></path><path d="M236.32,98.3c3.79,8.54,5.2,12.23,11.28,15.06,9.14,4.27,18.78-2.24,17.63-11.72-1-8.55-7.05-21.06-16.89-21.36a12.75,12.75,0,0,0-13.16,12.31A12.62,12.62,0,0,0,236.32,98.3Z" style="fill:#ffc2bc"></path><path d="M235.45,106.88c15.42-1.68,4.72-18.23,17.79-25.35-3.4-6-13-6.73-23.51,1.28C220.79,89.62,235.45,106.88,235.45,106.88Z" style="fill:#263238"></path><path d="M242.52,79.37s16.8,5,19.32,11.48c0,0,.65-13.53-5.32-13.88S239.61,75.41,242.52,79.37Z" style="fill:#263238"></path><path d="M236.29,107.83a6.88,6.88,0,0,0,5,1.57c2.37-.23,2.71-2.56,1.33-4.36-1.23-1.63-4-3.42-6-2.35a3.07,3.07,0,0,0-1.14,4.19A3.18,3.18,0,0,0,236.29,107.83Z" style="fill:#ffc2bc"></path><path d="M250.47,95.82c.26.7.86,1.13,1.32,1s.63-.89.36-1.6-.85-1.13-1.31-1S250.21,95.11,250.47,95.82Z" style="fill:#263238"></path><path d="M258.5,92.83c.27.71.85,1.13,1.33,1s.63-.88.35-1.6-.84-1.13-1.31-1S258.2,92.11,258.5,92.83Z" style="fill:#263238"></path><path d="M256.83,94.84a20.23,20.23,0,0,0,4.23,3.6,3.27,3.27,0,0,1-2.36,1.41Z" style="fill:#ec837e"></path><path d="M260.76,103.12a.18.18,0,0,0,.06-.26h0a.2.2,0,0,0-.26,0,7.47,7.47,0,0,1-5.15,1.32.19.19,0,0,0-.25.05.17.17,0,0,0,0,.24h0A7.69,7.69,0,0,0,260.76,103.12Z" style="fill:#263238"></path><path d="M247.61,90.66a.31.31,0,0,0,.3-.06,3.09,3.09,0,0,1,2.74-.72.36.36,0,0,0,.41-.22.3.3,0,0,0-.15-.41h0a3.7,3.7,0,0,0-3.31.84.36.36,0,0,0-.11.46A.25.25,0,0,0,247.61,90.66Z" style="fill:#263238"></path><path d="M260,87.1a.34.34,0,0,0,.21-.29.36.36,0,0,0-.33-.4h0a4.28,4.28,0,0,0-3.71,1.44.36.36,0,0,0,0,.5l0,0a.36.36,0,0,0,.51-.06h0a3.61,3.61,0,0,1,3.08-1.16A.33.33,0,0,0,260,87.1Z" style="fill:#263238"></path></g><path d="M271.23,192.21c-.36-.24-34,1.34-43.86,1.52-3.43.32-3.71-4.25-2.93-4.76l45.55-.24.05,0,.33-.49a15.47,15.47,0,0,1,1.26,2.43A1.48,1.48,0,0,1,271.23,192.21Z" style="fill:#407BFF"></path><path d="M271.23,192.21c-.36-.24-34,1.34-43.86,1.52-3.43.32-3.71-4.25-2.93-4.76l45.55-.24.05,0,.33-.49a15.47,15.47,0,0,1,1.26,2.43A1.48,1.48,0,0,1,271.23,192.21Z" style="opacity:0.2"></path><path d="M290,333.81h-.06a.49.49,0,0,1-.43-.56l1-8.24a.49.49,0,0,1,.56-.44.5.5,0,0,1,.43.56l-1,8.24A.5.5,0,0,1,290,333.81Z" style="fill:#407BFF"></path><path d="M292,317.32h-.06a.5.5,0,0,1-.44-.56l.7-5.68A260.56,260.56,0,0,0,293.93,269a.49.49,0,0,1,.47-.52.5.5,0,0,1,.52.48,260.21,260.21,0,0,1-1.73,42.23l-.69,5.68A.51.51,0,0,1,292,317.32Z" style="fill:#407BFF"></path><path d="M219.45,296.07l-1-.14c0-.16,2.17-15.45,2.52-27.33A233.47,233.47,0,0,0,219,230.74l1-.13a235.38,235.38,0,0,1,2,38C221.63,280.56,219.47,295.91,219.45,296.07Z" style="fill:#407BFF"></path><path d="M219,230.74c-.55-4.11-1.21-8.17-2-12.07l1-.19c.76,3.92,1.43,8,2,12.13Z" style="fill:#407BFF"></path><path d="M216,213.44c-.64-2.84-1.44-6.18-2.5-9.5l1-.31c1.07,3.36,1.87,6.73,2.51,9.59Z" style="fill:#407BFF"></path></g></svg>