<svg xmlns="http://www.w3.org/2000/svg" viewBox="0 0 231 231"><path d="M33.83,33.83a115.5,115.5,0,1,1,0,163.34,115.49,115.49,0,0,1,0-163.34Z" style="fill:#ff2c2c;"/><path d="m115.5 51.75a63.75 63.75 0 0 0-10.5 126.63v14.09a115.5 115.5 0 0 0-53.729 19.027 115.5 115.5 0 0 0 128.46 0 115.5 115.5 0 0 0-53.729-19.029v-14.084a63.75 63.75 0 0 0 53.25-62.881 63.75 63.75 0 0 0-63.65-63.75 63.75 63.75 0 0 0-0.09961 0z" style="fill:#ffce73;"/><path d="m141.75 194.98a114.79 114.78 0 0 1 38 16.498 115.53 115.52 0 0 1-128.46 0 114.79 114.78 0 0 1 38-16.498l15.71 15.748h21z" style="fill:#ff0000;"/><path d="m70 200.88v20.77c-2.22-0.95325-4.3999-1.9698-6.5399-3.0496h-0.10088v-14.621c2.17-1.1 4.39-2.1399 6.64-3.0996z" style="fill:#fff;"/><path d="m161 200.88v20.77c1.9-0.80986 3.7702-1.6798 5.6201-2.5898l0.0989-0.0494 0.82005-0.40997h0.10088v-14.621c-2.17-1.1-4.39-2.1399-6.6402-3.0996z" style="fill:#fff;"/><polygon transform="matrix(1 0 0 .99987 4e-5 -3e-5)" points="97.32 201.93 115.5 223.72 133.68 201.93" style="fill:#141720;"/><path d="m111.2 230.88 1.31-16.908c0.32992 1.2798 5.6399 1.2798 5.9999 0l1.3201 16.938c-1.4301 0.0494-2.8601 0.089-4.3 0.089s-2.87 0-4.3-0.089z" style="fill:#141720;"/><path d="m115.49 201.79v0.0692l-7.55 12.678-7.0001 11.809-19.19-26.487c0.60999-0.42995 1.22-0.89985 1.8001-1.3899a52 51.993 0 0 0 10.07-10.619l21.79 13.878z" style="fill:#e7ecf2;"/><path d="m149.24 199.86-19.08 26.517-7.0001-11.809-7.57-12.678-0.0593-0.10086 21.94-13.998a52.21 52.203 0 0 0 10.08 10.699c0.58013 0.47009 1.1502 0.92002 1.7301 1.3399z" style="fill:#e7ecf2;"/><path d="m43.891 77.836c-5.1124 28.237 2.1347 61.004 24.792 81.332-6.2362-12.503-9.5362-33.948-9.4887-45.458-0.50203-37.473 41.439-46.335 56.149-17.614 18.8-31.2 52.825-16.872 54.062 13.714 0.56018 13.844-0.43568 25.598-7.0962 48.966 18.372-12.47 28.012-53.959 23.545-80.941-47.486-2.2552-94.831-2.5724-141.96 0z" style="fill:#FFC600;"/><path d="m111.26 12.782c-18.508 0.0791-32.594 3.6163-32.594 3.6163 24.513 5.6002 32.807 10.504 31.743 19.835-0.87227 9.702-11.092 10.875-20.811 11.554-5.2548 0.36414-10.949 0.71523-16.391 1.7525-11.862 2.2818-19.946 4.3736-24.447 11.956-1.7012 2.8662-3.7945 10.428-4.8689 16.34h141.96c-5.7242-38.563-32.557-65.073-74.595-65.054z" style="fill:none;"/><path d="m73.292 44.77c-11.788 2.2816-18.923 5.5444-23.394 13.126-2.8484 6.7586-4.8454 13.238-6.0072 19.939h141.96c-1.9772-14.576-6.8677-28.248-19.277-32.098-28.834-6.3308-63.774-6.3553-93.285-0.96761z" style="fill:#FFC600;"/><path d="m165.95 35.642c-11.178 21.829-91.89 19.36-103.98 2.3011-9.703 12.267-15.605 25.883-18.079 39.892h141.96c-3.0096-17.158-9.7424-32.688-19.902-42.193z" style="fill:none;"/><path d="m97.56 107.84a10.63 10.63 0 0 1-15 0.13l-0.13-0.13" style="fill:none;stroke-linecap:round;stroke-linejoin:round;stroke-width:6.3px;stroke:#000;"/><path d="m148.59 107.84a10.63 10.63 0 0 1-15 0.13l-0.13-0.13" style="fill:none;stroke-linecap:round;stroke-linejoin:round;stroke-width:6.3px;stroke:#000;"/><path d="m118.57 165.14a8.66 8.66 0 0 0-2.76-4.23h-0.62a8 8 0 0 0-2.76 4.22c-0.52 1.89 2.07 10.61 2.76 12.53h0.62c0.64-1.76 3.19-10.82 2.76-12.52z" style="fill:#191919;"/><path d="m102.81 152.24a2.4921 2.4921 0 1 1 1.19-4.84l0.21 0.06a37.1 37.1 0 0 0 5.43 1.12 44.52 44.52 0 0 0 11.76 0 37.1 37.1 0 0 0 5.43-1.12 2.4903 2.4903 0 0 1 1.59 4.72l-0.21 0.06a43.08 43.08 0 0 1-6.15 1.29 48.55 48.55 0 0 1-13.08 0 42.79 42.79 0 0 1-6.17-1.29z" style="fill:#191919;"/></svg>